<?xml version="1.0" encoding="UTF-8"?>
<svg xmlns="http://www.w3.org/2000/svg" xmlns:xlink="http://www.w3.org/1999/xlink" width="180px" height="180px" viewBox="0 0 180 180" version="1.1">
<g id="surface1">
<path style=" stroke:none;fill-rule:nonzero;fill:rgb(0.392157%,0.392157%,0.392157%);fill-opacity:1;" d="M 78.328125 -0.148438 C 78.609375 -0.152344 78.886719 -0.152344 79.175781 -0.15625 C 80.097656 -0.164062 81.023438 -0.164062 81.945312 -0.164062 C 82.585938 -0.167969 83.230469 -0.171875 83.871094 -0.171875 C 85.214844 -0.175781 86.558594 -0.179688 87.90625 -0.175781 C 89.628906 -0.175781 91.351562 -0.183594 93.078125 -0.199219 C 94.402344 -0.207031 95.726562 -0.210938 97.050781 -0.207031 C 97.6875 -0.207031 98.324219 -0.210938 98.957031 -0.21875 C 99.847656 -0.226562 100.734375 -0.222656 101.625 -0.214844 C 101.886719 -0.222656 102.152344 -0.226562 102.421875 -0.230469 C 103.738281 -0.210938 104.308594 -0.0976562 105.292969 0.808594 C 106.027344 2.128906 105.828125 3.164062 105.46875 4.570312 C 105.175781 5.480469 104.867188 6.34375 104.511719 7.230469 C 104.417969 7.46875 104.324219 7.703125 104.230469 7.949219 C 103.933594 8.699219 103.636719 9.449219 103.335938 10.195312 C 103.136719 10.707031 102.933594 11.21875 102.734375 11.730469 C 102.242188 12.980469 101.746094 14.222656 101.25 15.46875 C 102.253906 16.480469 103.253906 17.457031 104.347656 18.371094 C 109.507812 22.910156 112.292969 28.683594 112.996094 35.5 C 113.148438 38.269531 112.753906 40.886719 112.144531 43.582031 C 112.027344 44.097656 112.027344 44.097656 111.914062 44.621094 C 110.816406 49.484375 109.585938 54.316406 108.367188 59.148438 C 108.035156 60.453125 107.710938 61.757812 107.382812 63.0625 C 106.746094 65.59375 106.109375 68.128906 105.46875 70.664062 C 105.691406 70.660156 105.910156 70.65625 106.140625 70.652344 C 108.445312 70.613281 110.746094 70.585938 113.050781 70.566406 C 113.910156 70.558594 114.773438 70.546875 115.632812 70.53125 C 116.867188 70.511719 118.101562 70.5 119.339844 70.492188 C 119.722656 70.484375 120.109375 70.472656 120.503906 70.464844 C 123.09375 70.464844 123.09375 70.464844 124.34375 71.289062 C 125.066406 73.066406 125.003906 74.78125 124.992188 76.683594 C 124.992188 77.097656 124.996094 77.515625 124.996094 77.941406 C 124.996094 78.816406 124.992188 79.691406 124.988281 80.570312 C 124.980469 81.910156 124.988281 83.25 124.996094 84.589844 C 124.996094 85.441406 124.996094 86.292969 124.992188 87.144531 C 124.996094 87.542969 124.996094 87.945312 125 88.359375 C 124.96875 91.136719 124.96875 91.136719 124.128906 92.535156 C 122.628906 93.828125 121.601562 93.515625 119.53125 93.515625 C 119.53125 104.1875 119.53125 114.863281 119.53125 125.859375 C 129.902344 125.859375 140.253906 125.523438 148.628906 118.742188 C 149.414062 118.125 149.414062 118.125 150.117188 118.125 C 150 117.777344 149.886719 117.429688 149.765625 117.070312 C 149.730469 116.292969 149.71875 115.511719 149.71875 114.734375 C 149.71875 114.269531 149.71875 113.808594 149.71875 113.332031 C 149.71875 113.089844 149.71875 112.847656 149.71875 112.601562 C 149.722656 111.867188 149.71875 111.136719 149.71875 110.40625 C 149.71875 109.9375 149.71875 109.46875 149.71875 109 C 149.71875 108.574219 149.71875 108.152344 149.71875 107.714844 C 149.765625 106.523438 149.765625 106.523438 149.96875 105.363281 C 150.210938 104.414062 150.210938 104.414062 149.726562 103.640625 C 149.535156 103.402344 149.347656 103.164062 149.148438 102.921875 C 146.703125 99.492188 146.4375 95.574219 147.117188 91.464844 C 148.160156 87.53125 150.578125 84.25 153.941406 82.003906 C 156.480469 80.542969 158.933594 79.964844 161.851562 80.003906 C 162.289062 80.007812 162.289062 80.007812 162.734375 80.011719 C 166.816406 80.121094 169.78125 81.5625 172.664062 84.410156 C 176.035156 88.023438 177.058594 91.734375 176.945312 96.597656 C 176.792969 99.480469 175.667969 101.847656 173.972656 104.148438 C 173.597656 104.746094 173.597656 104.746094 173.824219 105.355469 C 174.257812 107.125 174.117188 109.019531 174.128906 110.835938 C 174.132812 111.34375 174.136719 111.851562 174.148438 112.359375 C 174.164062 113.09375 174.167969 113.828125 174.171875 114.5625 C 174.179688 115.003906 174.183594 115.441406 174.1875 115.894531 C 173.988281 117.316406 173.710938 117.894531 172.617188 118.828125 C 171.332031 118.875 171.332031 118.875 170.15625 118.828125 C 170.167969 123.382812 170.191406 127.933594 170.222656 132.488281 C 170.234375 134.601562 170.246094 136.71875 170.25 138.832031 C 170.257812 140.871094 170.269531 142.910156 170.285156 144.953125 C 170.289062 145.730469 170.292969 146.507812 170.292969 147.289062 C 170.292969 148.378906 170.304688 149.46875 170.316406 150.558594 C 170.3125 150.878906 170.3125 151.203125 170.308594 151.535156 C 170.339844 153.4375 170.578125 154.300781 171.914062 155.742188 C 171.890625 157.015625 171.890625 157.015625 171.5625 158.203125 C 171.386719 158.347656 171.210938 158.488281 171.03125 158.636719 C 170.210938 159.613281 170.304688 160.734375 170.265625 161.960938 C 170.253906 162.207031 170.242188 162.453125 170.230469 162.707031 C 170.199219 163.316406 170.179688 163.921875 170.15625 164.53125 C 170.5625 164.558594 170.96875 164.589844 171.386719 164.621094 C 174.285156 164.996094 176.441406 166.480469 178.242188 168.75 C 179.664062 171.09375 180.070312 173.074219 180.085938 175.78125 C 180.09375 176.070312 180.101562 176.359375 180.109375 176.65625 C 180.113281 176.933594 180.113281 177.210938 180.117188 177.496094 C 180.117188 177.746094 180.121094 178 180.125 178.261719 C 179.960938 179.160156 179.648438 179.429688 178.945312 180 C 177.855469 180.105469 176.839844 180.148438 175.75 180.140625 C 175.257812 180.144531 175.257812 180.144531 174.757812 180.148438 C 173.675781 180.15625 172.59375 180.15625 171.507812 180.152344 C 170.757812 180.152344 170.003906 180.15625 169.253906 180.15625 C 167.675781 180.160156 166.101562 180.160156 164.523438 180.15625 C 162.5 180.152344 160.480469 180.160156 158.457031 180.171875 C 156.90625 180.175781 155.351562 180.175781 153.796875 180.175781 C 153.054688 180.175781 152.308594 180.175781 151.5625 180.179688 C 150.519531 180.1875 149.476562 180.183594 148.4375 180.175781 C 148.128906 180.179688 147.820312 180.183594 147.5 180.1875 C 145.421875 180.160156 145.421875 180.160156 144.304688 179.367188 C 143.542969 178.222656 143.550781 177.113281 143.570312 175.78125 C 143.574219 175.382812 143.574219 175.382812 143.578125 174.976562 C 143.714844 171.621094 145.015625 169.109375 147.4375 166.792969 C 149.355469 165.238281 151.128906 164.460938 153.632812 164.53125 C 153.601562 163.671875 153.566406 162.816406 153.523438 161.960938 C 153.515625 161.71875 153.507812 161.476562 153.5 161.226562 C 153.441406 159.816406 153.441406 159.816406 152.757812 158.625 C 152.582031 158.484375 152.40625 158.347656 152.226562 158.203125 C 151.832031 156.90625 151.757812 156.335938 152.359375 155.105469 C 152.929688 154.335938 152.929688 154.335938 153.28125 153.984375 C 153.324219 153.335938 153.34375 152.6875 153.351562 152.039062 C 153.359375 151.625 153.367188 151.210938 153.375 150.78125 C 153.378906 150.332031 153.386719 149.878906 153.390625 149.414062 C 153.402344 148.722656 153.402344 148.722656 153.414062 148.019531 C 153.433594 146.792969 153.453125 145.570312 153.46875 144.34375 C 153.484375 143.097656 153.503906 141.847656 153.523438 140.597656 C 153.5625 138.144531 153.597656 135.695312 153.632812 133.242188 C 153.421875 133.355469 153.214844 133.46875 152.996094 133.589844 C 151.980469 134.058594 151.222656 134.039062 150.117188 133.945312 C 149.769531 133.714844 149.421875 133.480469 149.0625 133.242188 C 146.980469 133.460938 144.878906 134.300781 143.085938 135.351562 C 142.542969 136.585938 142.542969 136.585938 142.382812 137.8125 C 140.9375 138.960938 139.292969 139.25 137.527344 139.613281 C 137.257812 139.671875 136.984375 139.734375 136.707031 139.792969 C 133.339844 140.515625 130.113281 140.679688 126.671875 140.671875 C 125.921875 140.667969 125.167969 140.671875 124.414062 140.671875 C 123.933594 140.671875 123.453125 140.671875 122.972656 140.671875 C 122.539062 140.671875 122.109375 140.671875 121.660156 140.671875 C 120.585938 140.625 120.585938 140.625 119.53125 140.273438 C 119.53125 140.46875 119.535156 140.664062 119.535156 140.867188 C 119.566406 145.640625 119.589844 150.414062 119.605469 155.191406 C 119.613281 157.5 119.621094 159.808594 119.636719 162.117188 C 119.652344 164.34375 119.660156 166.570312 119.664062 168.796875 C 119.667969 169.648438 119.671875 170.496094 119.679688 171.347656 C 119.691406 172.539062 119.691406 173.726562 119.691406 174.917969 C 119.695312 175.269531 119.699219 175.621094 119.707031 175.988281 C 119.703125 176.3125 119.703125 176.636719 119.699219 176.96875 C 119.703125 177.25 119.703125 177.53125 119.703125 177.820312 C 119.457031 178.929688 119.035156 179.332031 118.125 180 C 117.078125 180.175781 117.078125 180.175781 115.828125 180.179688 C 115.601562 180.179688 115.371094 180.183594 115.132812 180.183594 C 114.363281 180.191406 113.59375 180.1875 112.824219 180.183594 C 112.273438 180.183594 111.71875 180.1875 111.167969 180.1875 C 109.667969 180.195312 108.167969 180.191406 106.671875 180.1875 C 105.101562 180.183594 103.535156 180.1875 101.964844 180.191406 C 99.332031 180.195312 96.699219 180.191406 94.0625 180.183594 C 91.019531 180.175781 87.972656 180.179688 84.925781 180.1875 C 82.3125 180.191406 79.699219 180.191406 77.082031 180.191406 C 75.519531 180.1875 73.960938 180.1875 72.398438 180.191406 C 70.929688 180.195312 69.460938 180.191406 67.992188 180.183594 C 67.453125 180.183594 66.914062 180.183594 66.375 180.1875 C 65.640625 180.191406 64.90625 180.1875 64.171875 180.179688 C 63.757812 180.179688 63.347656 180.175781 62.921875 180.175781 C 61.640625 179.960938 61.222656 179.644531 60.46875 178.59375 C 60.296875 177.820312 60.296875 177.820312 60.300781 176.96875 C 60.296875 176.644531 60.296875 176.320312 60.292969 175.988281 C 60.300781 175.632812 60.304688 175.28125 60.308594 174.917969 C 60.308594 174.542969 60.308594 174.167969 60.308594 173.78125 C 60.308594 172.546875 60.320312 171.308594 60.332031 170.074219 C 60.335938 169.214844 60.335938 168.359375 60.335938 167.503906 C 60.34375 165.246094 60.355469 162.988281 60.371094 160.734375 C 60.386719 158.429688 60.394531 156.128906 60.398438 153.828125 C 60.414062 149.308594 60.4375 144.792969 60.46875 140.273438 C 60.121094 140.390625 59.773438 140.503906 59.414062 140.625 C 51.46875 141.121094 44.042969 140.347656 36.453125 137.921875 C 36.128906 137.820312 35.808594 137.71875 35.476562 137.613281 C 32.261719 136.515625 29.335938 134.871094 26.367188 133.242188 C 26.390625 135.929688 26.414062 138.613281 26.449219 141.300781 C 26.464844 142.546875 26.480469 143.796875 26.488281 145.042969 C 26.5 146.476562 26.519531 147.910156 26.539062 149.34375 C 26.542969 149.792969 26.542969 150.242188 26.546875 150.703125 C 26.550781 151.117188 26.558594 151.53125 26.566406 151.960938 C 26.570312 152.328125 26.574219 152.691406 26.578125 153.070312 C 26.738281 154.125 26.988281 154.359375 27.773438 155.039062 C 28.167969 156.335938 28.242188 156.90625 27.640625 158.136719 C 27.070312 158.90625 27.070312 158.90625 26.71875 159.257812 C 26.636719 160.144531 26.570312 161.027344 26.519531 161.917969 C 26.503906 162.167969 26.492188 162.417969 26.476562 162.675781 C 26.4375 163.292969 26.402344 163.910156 26.367188 164.53125 C 26.765625 164.554688 27.164062 164.574219 27.574219 164.597656 C 30.398438 164.964844 32.53125 166.507812 34.273438 168.703125 C 35.898438 171.003906 36.339844 172.921875 36.386719 175.714844 C 36.394531 175.976562 36.398438 176.238281 36.40625 176.503906 C 36.394531 177.628906 36.324219 178.421875 35.699219 179.371094 C 34.359375 180.3125 33.164062 180.195312 31.5625 180.175781 C 31.234375 180.179688 30.910156 180.179688 30.570312 180.183594 C 29.488281 180.1875 28.40625 180.179688 27.320312 180.175781 C 26.570312 180.175781 25.816406 180.175781 25.066406 180.175781 C 23.488281 180.175781 21.914062 180.171875 20.335938 180.164062 C 18.316406 180.152344 16.292969 180.15625 14.269531 180.160156 C 12.71875 180.160156 11.164062 180.160156 9.609375 180.15625 C 8.867188 180.152344 8.121094 180.152344 7.375 180.15625 C 6.332031 180.15625 5.292969 180.148438 4.25 180.140625 C 3.941406 180.144531 3.632812 180.144531 3.3125 180.148438 C 1.21875 180.121094 1.21875 180.121094 0.449219 179.550781 C -0.339844 178.484375 -0.171875 177.1875 -0.152344 175.914062 C -0.152344 175.625 -0.148438 175.339844 -0.144531 175.046875 C -0.0429688 171.429688 1.269531 169.136719 3.867188 166.640625 C 5.765625 165.167969 7.449219 164.484375 9.84375 164.53125 C 9.824219 163.6875 9.792969 162.847656 9.753906 162.003906 C 9.75 161.769531 9.746094 161.53125 9.742188 161.285156 C 9.65625 159.554688 9.203125 158.78125 8.085938 157.5 C 8.109375 156.226562 8.109375 156.226562 8.4375 155.039062 C 8.617188 154.871094 8.792969 154.703125 8.976562 154.527344 C 9.640625 153.828125 9.625 153.476562 9.632812 152.523438 C 9.636719 152.226562 9.640625 151.929688 9.644531 151.621094 C 9.644531 151.296875 9.644531 150.972656 9.644531 150.636719 C 9.648438 150.292969 9.652344 149.953125 9.65625 149.597656 C 9.664062 148.460938 9.667969 147.328125 9.671875 146.191406 C 9.679688 145.402344 9.683594 144.617188 9.691406 143.832031 C 9.707031 141.757812 9.71875 139.6875 9.726562 137.613281 C 9.738281 135.5 9.753906 133.386719 9.769531 131.273438 C 9.800781 127.125 9.824219 122.976562 9.84375 118.828125 C 9.261719 118.851562 9.261719 118.851562 8.667969 118.875 C 7.382812 118.828125 7.382812 118.828125 6.535156 118.105469 C 5.847656 116.832031 5.808594 116.003906 5.828125 114.5625 C 5.828125 114.328125 5.828125 114.09375 5.832031 113.847656 C 5.835938 113.097656 5.851562 112.347656 5.867188 111.597656 C 5.871094 111.09375 5.875 110.589844 5.878906 110.082031 C 5.914062 106.421875 5.914062 106.421875 6.183594 105.363281 C 6.410156 104.714844 6.410156 104.714844 5.9375 103.96875 C 5.746094 103.6875 5.558594 103.40625 5.359375 103.117188 C 2.972656 99.28125 2.550781 95.324219 3.394531 90.898438 C 4.125 88.445312 5.289062 86.585938 7.03125 84.726562 C 7.261719 84.476562 7.496094 84.226562 7.734375 83.96875 C 10.699219 81.050781 14.058594 79.996094 18.148438 79.957031 C 22.761719 80.035156 25.832031 81.507812 29.15625 84.671875 C 32.328125 88.003906 33.230469 91.871094 33.144531 96.351562 C 32.960938 98.9375 32.257812 101.261719 30.652344 103.316406 C 29.757812 104.324219 29.757812 104.324219 30.023438 105.375 C 30.09375 105.753906 30.164062 106.132812 30.234375 106.523438 C 30.191406 107.394531 30.128906 108.261719 30.046875 109.132812 C 29.472656 114.234375 29.472656 114.234375 30.769531 119.011719 C 32.183594 120.375 33.871094 121.082031 35.714844 121.707031 C 36.492188 121.96875 37.21875 122.273438 37.960938 122.625 C 42.429688 124.675781 47.554688 125.914062 52.46875 125.894531 C 52.699219 125.894531 52.929688 125.894531 53.167969 125.890625 C 53.894531 125.890625 54.621094 125.886719 55.347656 125.882812 C 55.847656 125.878906 56.34375 125.878906 56.839844 125.875 C 58.050781 125.871094 59.257812 125.867188 60.46875 125.859375 C 60.464844 125.613281 60.460938 125.363281 60.457031 125.109375 C 60.421875 122.769531 60.394531 120.433594 60.378906 118.09375 C 60.367188 116.890625 60.355469 115.691406 60.335938 114.488281 C 60.3125 113.105469 60.304688 111.722656 60.296875 110.339844 C 60.289062 109.910156 60.277344 109.480469 60.269531 109.035156 C 60.269531 108.632812 60.269531 108.234375 60.269531 107.820312 C 60.265625 107.464844 60.261719 107.113281 60.257812 106.75 C 60.546875 105.472656 61.144531 105.101562 62.226562 104.414062 C 62.457031 104.414062 62.691406 104.414062 62.929688 104.414062 C 62.929688 102.210938 62.929688 100.003906 62.929688 97.734375 C 62.464844 97.617188 62 97.503906 61.523438 97.382812 C 60.90625 97.007812 60.90625 97.007812 60.46875 96.328125 C 60.378906 95.371094 60.421875 94.480469 60.46875 93.515625 C 59.914062 93.539062 59.914062 93.539062 59.347656 93.558594 C 58.070312 93.519531 57.351562 93.425781 56.25 92.8125 C 55.246094 91.726562 55.0625 90.996094 55.054688 89.53125 C 55.046875 88.96875 55.046875 88.96875 55.039062 88.398438 C 55.039062 87.996094 55.042969 87.59375 55.042969 87.179688 C 55.042969 86.761719 55.039062 86.347656 55.039062 85.917969 C 55.035156 85.042969 55.035156 84.164062 55.039062 83.285156 C 55.042969 81.941406 55.03125 80.597656 55.019531 79.257812 C 55.019531 78.402344 55.019531 77.550781 55.019531 76.695312 C 55.015625 76.296875 55.011719 75.894531 55.007812 75.480469 C 55.023438 73.941406 55.074219 72.722656 55.65625 71.285156 C 57.222656 70.253906 58.828125 70.449219 60.660156 70.492188 C 61.058594 70.496094 61.453125 70.496094 61.859375 70.5 C 63.125 70.511719 64.390625 70.53125 65.652344 70.554688 C 66.511719 70.5625 67.367188 70.570312 68.226562 70.578125 C 70.328125 70.597656 72.429688 70.628906 74.53125 70.664062 C 74.464844 70.398438 74.398438 70.136719 74.328125 69.863281 C 73.691406 67.335938 73.054688 64.808594 72.421875 62.28125 C 72.097656 60.984375 71.769531 59.683594 71.441406 58.386719 C 68.945312 48.492188 68.945312 48.492188 67.855469 43.582031 C 67.785156 43.269531 67.714844 42.953125 67.640625 42.632812 C 66.1875 35.902344 67.457031 29.40625 70.945312 23.5 C 72.980469 20.367188 75.839844 18.097656 78.75 15.820312 C 78.210938 14.351562 77.675781 12.878906 77.136719 11.410156 C 76.953125 10.910156 76.769531 10.410156 76.589844 9.914062 C 76.324219 9.191406 76.0625 8.472656 75.796875 7.753906 C 75.640625 7.320312 75.480469 6.886719 75.316406 6.441406 C 75.050781 5.726562 74.773438 5.019531 74.46875 4.320312 C 74.042969 3.132812 74.242188 2.261719 74.53125 1.054688 C 75.425781 -0.363281 76.820312 -0.152344 78.328125 -0.148438 Z M 78.328125 -0.148438 "/>
<path style=" stroke:none;fill-rule:nonzero;fill:rgb(71.372551%,55.29412%,55.29412%);fill-opacity:1;" d="M 60.46875 75.9375 C 79.960938 75.9375 99.449219 75.9375 119.53125 75.9375 C 119.53125 79.882812 119.53125 83.828125 119.53125 87.890625 C 117.226562 87.972656 114.929688 88.042969 112.625 88.082031 C 111.84375 88.101562 111.0625 88.125 110.28125 88.15625 C 103.757812 88.402344 103.757812 88.402344 101.902344 87.132812 C 101.199219 86.242188 100.714844 85.378906 100.195312 84.375 C 96.851562 81.183594 92.953125 80.363281 88.453125 80.410156 C 84.578125 80.707031 81.105469 82.792969 78.574219 85.695312 C 78 86.40625 77.5 87.125 76.992188 87.890625 C 76.28125 88.015625 76.28125 88.015625 75.394531 88.011719 C 74.898438 88.011719 74.898438 88.011719 74.394531 88.011719 C 74.035156 88.003906 73.675781 88 73.308594 87.992188 C 72.941406 87.992188 72.578125 87.992188 72.199219 87.988281 C 71.027344 87.984375 69.859375 87.96875 68.6875 87.957031 C 67.894531 87.953125 67.101562 87.945312 66.308594 87.941406 C 64.363281 87.929688 62.414062 87.910156 60.46875 87.890625 C 60.46875 83.945312 60.46875 80 60.46875 75.9375 Z M 60.46875 75.9375 "/>
<path style=" stroke:none;fill-rule:nonzero;fill:rgb(95.686275%,89.803922%,50.196081%);fill-opacity:1;" d="M 80.859375 5.273438 C 86.890625 5.273438 92.925781 5.273438 99.140625 5.273438 C 97.207031 10.414062 97.207031 10.414062 96.59375 12.027344 C 96.4375 12.449219 96.28125 12.871094 96.121094 13.308594 C 95.957031 13.738281 95.796875 14.167969 95.628906 14.613281 C 95.277344 15.804688 95.152344 16.695312 95.273438 17.929688 C 96.515625 19.554688 98.285156 20.597656 99.9375 21.777344 C 103.089844 24.148438 103.089844 24.148438 103.710938 26.015625 C 103.035156 26.023438 103.035156 26.023438 102.34375 26.03125 C 100.671875 26.050781 99 26.078125 97.328125 26.109375 C 96.605469 26.121094 95.882812 26.128906 95.160156 26.136719 C 94.117188 26.148438 93.078125 26.167969 92.039062 26.1875 C 91.714844 26.191406 91.390625 26.191406 91.058594 26.195312 C 89.308594 26.230469 89.308594 26.230469 87.683594 26.828125 C 87.070312 27.453125 87.070312 27.453125 87.035156 28.652344 C 87.082031 29.835938 87.082031 29.835938 87.613281 30.476562 C 88.453125 31.09375 89.003906 31.078125 90.039062 31.089844 C 90.40625 31.097656 90.773438 31.101562 91.148438 31.109375 C 91.542969 31.113281 91.9375 31.113281 92.34375 31.117188 C 92.949219 31.125 92.949219 31.125 93.570312 31.136719 C 94.863281 31.15625 96.15625 31.167969 97.449219 31.179688 C 98.324219 31.191406 99.199219 31.203125 100.078125 31.214844 C 102.226562 31.246094 104.375 31.269531 106.523438 31.289062 C 107.097656 32.640625 107.304688 33.617188 107.269531 35.089844 C 107.265625 35.433594 107.257812 35.777344 107.25 36.128906 C 107.242188 36.390625 107.234375 36.648438 107.226562 36.914062 C 106.992188 36.859375 106.753906 36.800781 106.511719 36.742188 C 105.28125 36.53125 104.101562 36.488281 102.855469 36.476562 C 102.40625 36.464844 101.957031 36.457031 101.492188 36.445312 C 100.101562 36.570312 99.28125 36.914062 98.085938 37.617188 C 97.753906 37.8125 97.417969 38.007812 97.074219 38.210938 C 96.828125 38.363281 96.582031 38.515625 96.328125 38.671875 C 96.042969 38.488281 96.042969 38.488281 95.75 38.300781 C 95.5 38.140625 95.246094 37.980469 94.988281 37.816406 C 94.738281 37.65625 94.488281 37.496094 94.234375 37.332031 C 92.121094 36.101562 89.542969 36.304688 87.1875 36.5625 C 85.777344 37.113281 84.558594 37.808594 83.320312 38.671875 C 83.035156 38.488281 83.035156 38.488281 82.742188 38.300781 C 82.492188 38.140625 82.238281 37.980469 81.980469 37.816406 C 81.730469 37.65625 81.480469 37.496094 81.226562 37.332031 C 79.785156 36.492188 78.457031 36.507812 76.839844 36.519531 C 76.375 36.519531 75.910156 36.515625 75.433594 36.515625 C 74.460938 36.550781 73.691406 36.617188 72.773438 36.914062 C 72.753906 36.304688 72.742188 35.699219 72.730469 35.089844 C 72.722656 34.75 72.714844 34.414062 72.703125 34.066406 C 72.777344 33 73.03125 32.25 73.476562 31.289062 C 73.789062 31.28125 74.105469 31.269531 74.425781 31.261719 C 74.839844 31.242188 75.25 31.222656 75.671875 31.203125 C 76.082031 31.183594 76.488281 31.167969 76.910156 31.152344 C 78.222656 30.90625 78.65625 30.585938 79.453125 29.53125 C 79.589844 28.417969 79.457031 27.789062 79.101562 26.71875 C 78.441406 26.4375 78.441406 26.4375 77.671875 26.300781 C 77.285156 26.21875 77.285156 26.21875 76.890625 26.132812 C 76.691406 26.09375 76.492188 26.054688 76.289062 26.015625 C 77.761719 23.15625 80.222656 21.421875 82.84375 19.695312 C 83.96875 18.988281 83.96875 18.988281 84.726562 17.929688 C 84.632812 15.011719 83.636719 12.523438 82.59375 9.820312 C 82.023438 8.320312 81.449219 6.820312 80.859375 5.273438 Z M 80.859375 5.273438 "/>
<path style=" stroke:none;fill-rule:nonzero;fill:rgb(71.372551%,55.29412%,55.29412%);fill-opacity:1;" d="M 81.914062 132.890625 C 81.945312 135.664062 81.972656 138.433594 81.988281 141.207031 C 81.996094 142.492188 82.003906 143.78125 82.019531 145.066406 C 82.035156 146.308594 82.042969 147.550781 82.046875 148.792969 C 82.050781 149.5 82.0625 150.203125 82.074219 150.90625 C 82.074219 151.335938 82.074219 151.765625 82.074219 152.207031 C 82.078125 152.585938 82.078125 152.964844 82.082031 153.351562 C 81.875 154.574219 81.414062 154.9375 80.507812 155.742188 C 80.273438 156.621094 80.273438 156.621094 80.507812 157.5 C 80.742188 157.691406 80.976562 157.878906 81.214844 158.078125 C 82.207031 159.253906 82.070312 160.347656 82 161.804688 C 81.996094 162.070312 81.988281 162.332031 81.984375 162.601562 C 81.964844 163.246094 81.941406 163.886719 81.914062 164.53125 C 81.695312 164.582031 81.480469 164.632812 81.257812 164.6875 C 77.804688 165.601562 75.457031 167.015625 73.542969 170.070312 C 72.699219 171.664062 72.375 172.90625 72.070312 174.726562 C 69.980469 174.726562 67.894531 174.726562 65.742188 174.726562 C 65.742188 163.007812 65.742188 151.292969 65.742188 139.21875 C 68.527344 138.289062 71.3125 137.363281 74.179688 136.40625 C 75.707031 135.726562 80.015625 132.890625 81.914062 132.890625 Z M 81.914062 132.890625 "/>
<path style=" stroke:none;fill-rule:nonzero;fill:rgb(60.784316%,41.568628%,41.568628%);fill-opacity:1;" d="M 98.085938 132.890625 C 99.175781 133.324219 100.242188 133.769531 101.292969 134.292969 C 105.546875 136.375 109.695312 137.914062 114.257812 139.21875 C 114.257812 150.9375 114.257812 162.652344 114.257812 174.726562 C 112.167969 174.726562 110.082031 174.726562 107.929688 174.726562 C 107.855469 174.277344 107.785156 173.828125 107.710938 173.363281 C 107.046875 170.445312 105.546875 168.042969 103.0625 166.351562 C 101.8125 165.667969 100.511719 165.257812 99.140625 164.882812 C 98.792969 164.765625 98.445312 164.652344 98.085938 164.53125 C 98.046875 163.621094 98.019531 162.714844 98 161.804688 C 97.984375 161.550781 97.972656 161.292969 97.960938 161.03125 C 97.9375 159.746094 97.929688 159.082031 98.796875 158.101562 C 99.027344 157.902344 99.253906 157.703125 99.492188 157.5 C 99.523438 156.226562 99.523438 156.226562 99.140625 155.039062 C 98.792969 154.808594 98.445312 154.574219 98.085938 154.335938 C 97.960938 153.4375 97.960938 153.4375 97.964844 152.289062 C 97.964844 151.859375 97.964844 151.429688 97.964844 150.988281 C 97.972656 150.515625 97.976562 150.046875 97.984375 149.574219 C 97.984375 149.097656 97.988281 148.617188 97.988281 148.136719 C 97.992188 146.875 98 145.609375 98.011719 144.347656 C 98.023438 143.058594 98.027344 141.769531 98.035156 140.480469 C 98.046875 137.949219 98.0625 135.421875 98.085938 132.890625 Z M 98.085938 132.890625 "/>
<path style=" stroke:none;fill-rule:nonzero;fill:rgb(70.980394%,54.901963%,54.901963%);fill-opacity:1;" d="M 65.742188 93.164062 C 68.875 93.164062 72.007812 93.164062 75.234375 93.164062 C 75.3125 94.136719 75.394531 95.105469 75.476562 96.109375 C 75.820312 99.546875 76.753906 102.15625 79.101562 104.765625 C 78.984375 104.941406 78.867188 105.121094 78.75 105.300781 C 78.269531 106.492188 78.367188 107.59375 78.429688 108.851562 C 78.445312 109.378906 78.460938 109.910156 78.472656 110.441406 C 78.5 111.273438 78.53125 112.105469 78.570312 112.9375 C 78.792969 117.566406 78.792969 117.566406 77.832031 118.925781 C 77.109375 119.480469 76.414062 119.859375 75.585938 120.234375 C 75.242188 120.460938 74.902344 120.683594 74.550781 120.917969 C 68.574219 124.453125 68.574219 124.453125 65.742188 124.453125 C 65.738281 124.226562 65.734375 124 65.730469 123.765625 C 65.691406 121.410156 65.652344 119.054688 65.609375 116.699219 C 65.597656 115.820312 65.582031 114.941406 65.566406 114.0625 C 65.546875 112.800781 65.523438 111.535156 65.5 110.273438 C 65.496094 109.878906 65.488281 109.484375 65.484375 109.078125 C 65.476562 108.710938 65.46875 108.347656 65.460938 107.96875 C 65.457031 107.648438 65.453125 107.324219 65.445312 106.992188 C 65.421875 106.117188 65.421875 106.117188 65.039062 105.117188 C 64.34375 105 63.648438 104.886719 62.929688 104.765625 C 62.929688 102.445312 62.929688 100.125 62.929688 97.734375 C 63.625 97.386719 64.320312 97.039062 65.039062 96.679688 C 65.269531 95.519531 65.503906 94.359375 65.742188 93.164062 Z M 65.742188 93.164062 "/>
<path style=" stroke:none;fill-rule:nonzero;fill:rgb(60.784316%,41.568628%,41.568628%);fill-opacity:1;" d="M 104.765625 93.164062 C 107.898438 93.164062 111.03125 93.164062 114.257812 93.164062 C 114.257812 103.605469 114.257812 114.046875 114.257812 124.804688 C 108.695312 122.816406 108.695312 122.816406 106.742188 121.664062 C 106.363281 121.441406 105.984375 121.222656 105.59375 120.992188 C 105.203125 120.742188 104.816406 120.492188 104.414062 120.234375 C 104.160156 120.121094 103.910156 120.003906 103.648438 119.886719 C 102.714844 119.382812 102.210938 119.003906 101.601562 118.125 C 101.265625 116.109375 101.367188 114.140625 101.46875 112.105469 C 101.5 111.28125 101.527344 110.457031 101.546875 109.632812 C 101.5625 109.121094 101.582031 108.609375 101.609375 108.097656 C 101.660156 106.796875 101.628906 105.871094 100.898438 104.765625 C 101.039062 104.589844 101.179688 104.417969 101.324219 104.238281 C 101.601562 103.878906 101.601562 103.878906 101.886719 103.511719 C 102.070312 103.28125 102.253906 103.046875 102.445312 102.808594 C 103.863281 100.65625 104.257812 98.699219 104.480469 96.175781 C 104.574219 95.179688 104.667969 94.1875 104.765625 93.164062 Z M 104.765625 93.164062 "/>
<path style=" stroke:none;fill-rule:nonzero;fill:rgb(95.294118%,89.411765%,49.803922%);fill-opacity:1;" d="M 166.253906 86.371094 C 169.042969 88.128906 170.527344 90.058594 171.5625 93.164062 C 171.902344 96.210938 171.214844 98.945312 169.320312 101.382812 C 167.101562 103.601562 164.886719 104.511719 161.761719 104.546875 C 159.632812 104.515625 158.1875 104.226562 156.445312 103.007812 C 156.140625 102.820312 155.835938 102.628906 155.523438 102.4375 C 153.390625 100.304688 152.222656 97.835938 152.117188 94.835938 C 152.164062 92.050781 153.503906 89.8125 155.378906 87.820312 C 158.492188 85.070312 162.523438 84.441406 166.253906 86.371094 Z M 166.253906 86.371094 "/>
<path style=" stroke:none;fill-rule:nonzero;fill:rgb(95.294118%,89.411765%,49.803922%);fill-opacity:1;" d="M 95.273438 86.835938 C 97.355469 88.117188 98.726562 90.167969 99.492188 92.460938 C 99.78125 95.636719 99.675781 98.28125 97.734375 100.898438 C 95.988281 102.792969 94.101562 104.253906 91.488281 104.578125 C 91.011719 104.589844 90.539062 104.59375 90.066406 104.589844 C 89.816406 104.585938 89.570312 104.585938 89.3125 104.582031 C 86.34375 104.480469 84.648438 103.410156 82.660156 101.292969 C 80.667969 98.796875 80.285156 96.878906 80.363281 93.695312 C 80.644531 91.28125 81.640625 89.414062 83.40625 87.757812 C 87.160156 84.910156 91.105469 84.597656 95.273438 86.835938 Z M 95.273438 86.835938 "/>
<path style=" stroke:none;fill-rule:nonzero;fill:rgb(95.294118%,89.411765%,49.803922%);fill-opacity:1;" d="M 22.464844 86.371094 C 24.699219 87.78125 26.78125 89.453125 27.421875 92.109375 C 27.78125 95.289062 27.910156 98.195312 25.960938 100.890625 C 24.054688 102.980469 22.085938 104.222656 19.230469 104.542969 C 16.050781 104.605469 13.792969 104.191406 11.320312 102.128906 C 9.417969 100.164062 8.402344 97.410156 8.261719 94.703125 C 8.410156 92 9.765625 89.757812 11.589844 87.820312 C 14.703125 85.070312 18.734375 84.441406 22.464844 86.371094 Z M 22.464844 86.371094 "/>
<path style=" stroke:none;fill-rule:nonzero;fill:rgb(61.176473%,41.960785%,41.960785%);fill-opacity:1;" d="M 60.46875 75.9375 C 79.960938 75.9375 99.449219 75.9375 119.53125 75.9375 C 119.53125 79.882812 119.53125 83.828125 119.53125 87.890625 C 117.226562 87.972656 114.929688 88.042969 112.625 88.082031 C 111.84375 88.101562 111.0625 88.125 110.28125 88.15625 C 103.769531 88.402344 103.769531 88.402344 101.878906 87.128906 C 101.15625 86.234375 100.664062 85.417969 100.195312 84.375 C 99.847656 83.851562 99.847656 83.851562 99.492188 83.320312 C 99.792969 83.292969 100.09375 83.269531 100.40625 83.242188 C 102.683594 82.980469 104.421875 82.761719 106.066406 81.085938 C 107.3125 79.511719 107.597656 78.285156 107.929688 76.289062 C 92.382812 76.289062 76.835938 76.289062 60.820312 76.289062 C 60.820312 78.726562 60.820312 81.160156 60.820312 83.671875 C 67.203125 83.671875 73.582031 83.671875 80.15625 83.671875 C 76.992188 87.890625 76.992188 87.890625 76.238281 88.058594 C 75.945312 88.054688 75.65625 88.054688 75.355469 88.050781 C 75.023438 88.050781 74.695312 88.050781 74.351562 88.050781 C 73.996094 88.042969 73.640625 88.035156 73.273438 88.027344 C 72.910156 88.027344 72.542969 88.023438 72.167969 88.023438 C 71 88.015625 69.832031 87.996094 68.664062 87.976562 C 67.875 87.972656 67.082031 87.964844 66.289062 87.960938 C 64.351562 87.945312 62.410156 87.917969 60.46875 87.890625 C 60.46875 83.945312 60.46875 80 60.46875 75.9375 Z M 60.46875 75.9375 "/>
<path style=" stroke:none;fill-rule:nonzero;fill:rgb(63.529414%,61.56863%,80.392158%);fill-opacity:1;" d="M 153.984375 121.992188 C 154.269531 123.59375 154.382812 124.972656 153.984375 126.5625 C 152.871094 127.5625 151.78125 128.195312 150.449219 128.851562 C 149.382812 129.261719 149.382812 129.261719 149.0625 130.078125 C 149.046875 130.898438 149.046875 131.71875 149.0625 132.539062 C 148.273438 132.945312 147.480469 133.347656 146.6875 133.746094 C 146.464844 133.863281 146.242188 133.976562 146.015625 134.09375 C 144.9375 134.636719 143.925781 135.136719 142.734375 135.351562 C 142.648438 135.125 142.558594 134.902344 142.46875 134.667969 C 142.105469 133.902344 142.105469 133.902344 141.40625 133.695312 C 139.441406 133.492188 137.929688 133.789062 136.046875 134.355469 C 125.484375 137.324219 113.316406 134.960938 103.710938 130.078125 C 103.453125 129.953125 103.191406 129.824219 102.925781 129.695312 C 99.285156 127.875 99.285156 127.875 98.085938 126.5625 C 97.628906 125.050781 97.710938 123.863281 98.085938 122.34375 C 99.328125 122.792969 100.257812 123.3125 101.292969 124.125 C 110.261719 130.515625 122.226562 132.804688 133 131.066406 C 140.28125 129.753906 147.144531 126.902344 153.046875 122.425781 C 153.632812 121.992188 153.632812 121.992188 153.984375 121.992188 Z M 153.984375 121.992188 "/>
<path style=" stroke:none;fill-rule:nonzero;fill:rgb(63.137257%,61.176473%,80.000001%);fill-opacity:1;" d="M 26.015625 121.992188 C 26.238281 122.136719 26.460938 122.28125 26.6875 122.429688 C 37.785156 129.59375 49.761719 133.113281 63.082031 130.757812 C 69.578125 129.316406 75.996094 126.496094 81.210938 122.34375 C 81.441406 122.34375 81.675781 122.34375 81.914062 122.34375 C 82.152344 123.8125 82.226562 125.101562 81.914062 126.5625 C 80.832031 127.753906 79.484375 128.335938 78.046875 129.023438 C 77.632812 129.25 77.222656 129.480469 76.808594 129.710938 C 65.492188 135.917969 52.527344 136.824219 40.179688 133.519531 C 35.898438 132.261719 31.988281 130.171875 28.125 127.96875 C 27.902344 127.855469 27.679688 127.738281 27.449219 127.621094 C 26.863281 127.296875 26.863281 127.296875 26.015625 126.5625 C 25.808594 125.425781 25.808594 125.425781 25.882812 124.1875 C 25.914062 123.570312 25.914062 123.570312 25.941406 122.941406 C 25.964844 122.628906 25.992188 122.316406 26.015625 121.992188 Z M 26.015625 121.992188 "/>
<path style=" stroke:none;fill-rule:nonzero;fill:rgb(64.313728%,62.352943%,81.176472%);fill-opacity:1;" d="M 79.804688 28.828125 C 80.953125 28.777344 82.105469 28.746094 83.253906 28.71875 C 83.582031 28.703125 83.90625 28.6875 84.242188 28.671875 C 85.140625 28.65625 85.953125 28.660156 86.835938 28.828125 C 87.566406 29.691406 87.566406 29.691406 87.890625 30.585938 C 88.472656 31.167969 89.160156 30.996094 89.960938 31.007812 C 90.328125 31.015625 90.691406 31.023438 91.070312 31.03125 C 91.46875 31.035156 91.867188 31.042969 92.277344 31.046875 C 92.679688 31.054688 93.085938 31.0625 93.503906 31.070312 C 94.804688 31.09375 96.105469 31.113281 97.40625 31.136719 C 98.285156 31.152344 99.164062 31.164062 100.042969 31.179688 C 102.203125 31.21875 104.363281 31.253906 106.523438 31.289062 C 107.097656 32.640625 107.304688 33.617188 107.269531 35.089844 C 107.265625 35.433594 107.257812 35.777344 107.25 36.128906 C 107.242188 36.390625 107.234375 36.648438 107.226562 36.914062 C 106.992188 36.859375 106.753906 36.800781 106.511719 36.742188 C 105.28125 36.53125 104.101562 36.488281 102.855469 36.476562 C 102.40625 36.464844 101.957031 36.457031 101.492188 36.445312 C 100.101562 36.570312 99.28125 36.914062 98.085938 37.617188 C 97.753906 37.8125 97.417969 38.007812 97.074219 38.210938 C 96.707031 38.4375 96.707031 38.4375 96.328125 38.671875 C 96.136719 38.550781 95.945312 38.425781 95.75 38.300781 C 95.5 38.140625 95.246094 37.980469 94.988281 37.816406 C 94.738281 37.65625 94.488281 37.496094 94.234375 37.332031 C 92.121094 36.101562 89.542969 36.304688 87.1875 36.5625 C 85.777344 37.113281 84.558594 37.808594 83.320312 38.671875 C 83.128906 38.550781 82.9375 38.425781 82.742188 38.300781 C 82.363281 38.058594 82.363281 38.058594 81.980469 37.816406 C 81.730469 37.65625 81.480469 37.496094 81.226562 37.332031 C 79.785156 36.492188 78.457031 36.507812 76.839844 36.519531 C 76.375 36.519531 75.910156 36.515625 75.433594 36.515625 C 74.460938 36.550781 73.691406 36.617188 72.773438 36.914062 C 72.753906 36.304688 72.742188 35.699219 72.730469 35.089844 C 72.722656 34.75 72.714844 34.414062 72.703125 34.066406 C 72.777344 33 73.03125 32.25 73.476562 31.289062 C 73.945312 31.277344 73.945312 31.277344 74.425781 31.261719 C 74.839844 31.242188 75.25 31.222656 75.671875 31.203125 C 76.285156 31.175781 76.285156 31.175781 76.910156 31.152344 C 78.222656 30.902344 78.636719 30.566406 79.453125 29.53125 C 79.570312 29.300781 79.683594 29.066406 79.804688 28.828125 Z M 79.804688 28.828125 "/>
<path style=" stroke:none;fill-rule:nonzero;fill:rgb(89.411765%,88.235295%,89.411765%);fill-opacity:1;" d="M 87.1875 118.828125 C 89.042969 118.828125 90.898438 118.828125 92.8125 118.828125 C 92.8125 130.429688 92.8125 142.03125 92.8125 153.984375 C 90.957031 153.984375 89.101562 153.984375 87.1875 153.984375 C 87.1875 142.382812 87.1875 130.78125 87.1875 118.828125 Z M 87.1875 118.828125 "/>
<path style=" stroke:none;fill-rule:nonzero;fill:rgb(93.333334%,92.156863%,93.333334%);fill-opacity:1;" d="M 159.257812 118.828125 C 161 118.828125 162.738281 118.828125 164.53125 118.828125 C 164.53125 130.429688 164.53125 142.03125 164.53125 153.984375 C 162.789062 153.984375 161.050781 153.984375 159.257812 153.984375 C 159.257812 142.382812 159.257812 130.78125 159.257812 118.828125 Z M 159.257812 118.828125 "/>
<path style=" stroke:none;fill-rule:nonzero;fill:rgb(93.333334%,92.156863%,93.333334%);fill-opacity:1;" d="M 15.46875 118.828125 C 17.210938 118.828125 18.949219 118.828125 20.742188 118.828125 C 20.742188 130.429688 20.742188 142.03125 20.742188 153.984375 C 19 153.984375 17.261719 153.984375 15.46875 153.984375 C 15.46875 142.382812 15.46875 130.78125 15.46875 118.828125 Z M 15.46875 118.828125 "/>
<path style=" stroke:none;fill-rule:nonzero;fill:rgb(64.313728%,62.352943%,81.176472%);fill-opacity:1;" d="M 83.320312 51.679688 C 83.570312 51.832031 83.824219 51.984375 84.082031 52.140625 C 86.800781 53.660156 89.003906 54.265625 92.109375 53.789062 C 93.515625 53.347656 94.742188 52.714844 95.984375 51.933594 C 96.214844 51.851562 96.445312 51.765625 96.679688 51.679688 C 97.285156 51.972656 97.285156 51.972656 97.910156 52.46875 C 99.699219 53.714844 101.582031 53.902344 103.710938 54.140625 C 103.523438 55.96875 103.253906 57.269531 102.65625 59.0625 C 94.304688 59.0625 85.949219 59.0625 77.34375 59.0625 C 76.289062 55.546875 76.289062 55.546875 76.289062 54.140625 C 76.542969 54.101562 76.796875 54.0625 77.0625 54.023438 C 79.476562 53.628906 81.269531 53.046875 83.320312 51.679688 Z M 83.320312 51.679688 "/>
<path style=" stroke:none;fill-rule:nonzero;fill:rgb(91.37255%,82.745099%,26.274511%);fill-opacity:1;" d="M 78.75 63.984375 C 86.175781 63.984375 93.601562 63.984375 101.25 63.984375 C 100.546875 68.554688 100.546875 68.554688 99.84375 70.664062 C 93.347656 70.664062 86.851562 70.664062 80.15625 70.664062 C 78.75 65.039062 78.75 65.039062 78.75 63.984375 Z M 78.75 63.984375 "/>
<path style=" stroke:none;fill-rule:nonzero;fill:rgb(71.372551%,55.29412%,55.29412%);fill-opacity:1;" d="M 98.085938 132.890625 C 99.207031 133.328125 100.289062 133.796875 101.359375 134.339844 C 101.605469 134.464844 101.851562 134.589844 102.101562 134.71875 C 102.285156 134.808594 102.46875 134.902344 102.65625 135 C 102.679688 137.585938 102.699219 140.171875 102.710938 142.757812 C 102.714844 143.957031 102.722656 145.160156 102.734375 146.359375 C 102.75 147.746094 102.753906 149.132812 102.757812 150.519531 C 102.765625 150.941406 102.769531 151.367188 102.777344 151.804688 C 102.777344 155.292969 102.320312 158.664062 100.570312 161.742188 C 100.3125 162.203125 100.3125 162.203125 100.054688 162.675781 C 99.476562 163.5 98.921875 163.980469 98.085938 164.53125 C 98.046875 163.621094 98.019531 162.714844 98 161.804688 C 97.984375 161.550781 97.972656 161.292969 97.960938 161.03125 C 97.9375 159.746094 97.929688 159.082031 98.796875 158.101562 C 99.027344 157.902344 99.253906 157.703125 99.492188 157.5 C 99.523438 156.226562 99.523438 156.226562 99.140625 155.039062 C 98.792969 154.808594 98.445312 154.574219 98.085938 154.335938 C 97.960938 153.4375 97.960938 153.4375 97.964844 152.289062 C 97.964844 151.859375 97.964844 151.429688 97.964844 150.988281 C 97.972656 150.515625 97.976562 150.046875 97.984375 149.574219 C 97.984375 149.097656 97.988281 148.617188 97.988281 148.136719 C 97.992188 146.875 98 145.609375 98.011719 144.347656 C 98.023438 143.058594 98.027344 141.769531 98.035156 140.480469 C 98.046875 137.949219 98.0625 135.421875 98.085938 132.890625 Z M 98.085938 132.890625 "/>
<path style=" stroke:none;fill-rule:nonzero;fill:rgb(94.117647%,85.09804%,26.666668%);fill-opacity:1;" d="M 164.179688 85.78125 C 166.628906 86.199219 168.15625 87.476562 169.804688 89.296875 C 171.335938 91.660156 171.84375 93.910156 171.5625 96.679688 C 170.828125 99.410156 169.617188 101.371094 167.367188 103.09375 C 164.742188 104.59375 162.21875 104.652344 159.257812 104.414062 C 158.316406 104.15625 157.648438 103.847656 156.796875 103.359375 C 157.492188 102.664062 157.917969 102.445312 158.796875 102.0625 C 161.777344 100.589844 163.261719 98.277344 164.53125 95.273438 C 164.953125 94.003906 164.949219 92.835938 164.949219 91.515625 C 164.949219 91.265625 164.949219 91.011719 164.949219 90.75 C 164.933594 88.976562 164.738281 87.460938 164.179688 85.78125 Z M 164.179688 85.78125 "/>
<path style=" stroke:none;fill-rule:nonzero;fill:rgb(94.509804%,85.490197%,26.666668%);fill-opacity:1;" d="M 20.390625 85.78125 C 23.101562 86.242188 24.777344 87.847656 26.527344 89.898438 C 27.988281 92.1875 27.832031 95.476562 27.421875 98.085938 C 26.558594 100.597656 24.824219 102.449219 22.5 103.710938 C 20.054688 104.699219 17.160156 104.878906 14.601562 104.175781 C 13.929688 103.886719 13.929688 103.886719 13.007812 103.359375 C 13.703125 102.664062 14.128906 102.445312 15.007812 102.0625 C 17.546875 100.820312 19.179688 98.84375 20.390625 96.328125 C 20.980469 94.570312 21.1875 93.039062 21.179688 91.1875 C 21.183594 90.738281 21.183594 90.292969 21.1875 89.832031 C 21.097656 88.65625 20.859375 87.898438 20.390625 86.835938 C 20.390625 86.488281 20.390625 86.140625 20.390625 85.78125 Z M 20.390625 85.78125 "/>
<path style=" stroke:none;fill-rule:nonzero;fill:rgb(94.117647%,85.490197%,26.666668%);fill-opacity:1;" d="M 92.460938 85.78125 C 95.027344 86.421875 97 87.839844 98.414062 90.066406 C 99.773438 92.398438 99.734375 94.738281 99.492188 97.382812 C 98.617188 100.421875 96.597656 102.34375 93.953125 103.945312 C 92.609375 104.5 91.429688 104.570312 90 104.546875 C 89.757812 104.550781 89.519531 104.554688 89.269531 104.558594 C 87.617188 104.546875 86.496094 104.195312 85.078125 103.359375 C 86.027344 102.625 87 101.984375 88.023438 101.359375 C 90.632812 99.625 92.285156 97.140625 93.011719 94.089844 C 93.40625 91.703125 93.34375 89.449219 92.460938 87.1875 C 92.460938 86.722656 92.460938 86.257812 92.460938 85.78125 Z M 92.460938 85.78125 "/>
<path style=" stroke:none;fill-rule:nonzero;fill:rgb(95.686275%,89.803922%,49.803922%);fill-opacity:1;" d="M 156.78125 169.664062 C 157.15625 169.664062 157.53125 169.664062 157.917969 169.660156 C 158.707031 169.660156 159.496094 169.664062 160.285156 169.667969 C 161.492188 169.671875 162.695312 169.667969 163.902344 169.660156 C 164.671875 169.660156 165.441406 169.664062 166.210938 169.664062 C 166.566406 169.664062 166.925781 169.660156 167.296875 169.65625 C 169.570312 169.679688 171.410156 169.867188 173.230469 171.363281 C 174.175781 172.570312 174.414062 173.160156 174.726562 174.726562 C 166.257812 174.726562 157.789062 174.726562 149.0625 174.726562 C 149.742188 172.691406 150.238281 171.632812 151.859375 170.289062 C 153.476562 169.554688 155.023438 169.652344 156.78125 169.664062 Z M 156.78125 169.664062 "/>
<path style=" stroke:none;fill-rule:nonzero;fill:rgb(95.686275%,89.803922%,50.196081%);fill-opacity:1;" d="M 10.835938 169.703125 C 11.171875 169.699219 11.507812 169.695312 11.855469 169.6875 C 12.394531 169.6875 12.394531 169.6875 12.949219 169.6875 C 13.507812 169.683594 13.507812 169.683594 14.078125 169.679688 C 14.871094 169.675781 15.660156 169.675781 16.453125 169.675781 C 17.65625 169.671875 18.859375 169.660156 20.066406 169.648438 C 20.835938 169.644531 21.605469 169.644531 22.375 169.644531 C 22.730469 169.636719 23.089844 169.632812 23.457031 169.628906 C 26.140625 169.644531 28.109375 170.140625 30.035156 172.066406 C 30.585938 172.96875 30.585938 172.96875 30.9375 174.726562 C 22.46875 174.726562 14 174.726562 5.273438 174.726562 C 5.957031 172.679688 6.503906 171.269531 8.390625 170.101562 C 9.253906 169.761719 9.910156 169.710938 10.835938 169.703125 Z M 10.835938 169.703125 "/>
<path style=" stroke:none;fill-rule:nonzero;fill:rgb(95.686275%,89.803922%,50.196081%);fill-opacity:1;" d="M 82.839844 169.746094 C 83.175781 169.746094 83.515625 169.742188 83.863281 169.738281 C 84.230469 169.734375 84.597656 169.734375 84.972656 169.734375 C 85.539062 169.730469 85.539062 169.730469 86.113281 169.726562 C 86.914062 169.722656 87.710938 169.722656 88.507812 169.71875 C 89.726562 169.71875 90.945312 169.707031 92.164062 169.695312 C 92.9375 169.691406 93.714844 169.691406 94.488281 169.6875 C 95.035156 169.683594 95.035156 169.683594 95.589844 169.675781 C 97.851562 169.683594 99.460938 169.894531 101.214844 171.453125 C 101.386719 171.65625 101.558594 171.859375 101.734375 172.066406 C 101.910156 172.269531 102.085938 172.472656 102.269531 172.683594 C 102.65625 173.320312 102.65625 173.320312 102.65625 174.726562 C 94.304688 174.726562 85.949219 174.726562 77.34375 174.726562 C 77.738281 172.351562 77.738281 172.351562 79.078125 171.277344 C 79.328125 171.070312 79.578125 170.867188 79.835938 170.65625 C 80.902344 169.863281 81.527344 169.757812 82.839844 169.746094 Z M 82.839844 169.746094 "/>
<path style=" stroke:none;fill-rule:nonzero;fill:rgb(56.470591%,39.215687%,39.215687%);fill-opacity:1;" d="M 60.46875 75.9375 C 79.960938 75.9375 99.449219 75.9375 119.53125 75.9375 C 119.53125 79.882812 119.53125 83.828125 119.53125 87.890625 C 119.414062 87.890625 119.300781 87.890625 119.179688 87.890625 C 119.179688 84.0625 119.179688 80.234375 119.179688 76.289062 C 99.921875 76.289062 80.664062 76.289062 60.820312 76.289062 C 60.820312 78.726562 60.820312 81.160156 60.820312 83.671875 C 67.203125 83.671875 73.582031 83.671875 80.15625 83.671875 C 76.992188 87.890625 76.992188 87.890625 76.238281 88.058594 C 75.945312 88.054688 75.65625 88.054688 75.355469 88.050781 C 75.023438 88.050781 74.695312 88.050781 74.351562 88.050781 C 73.996094 88.042969 73.640625 88.035156 73.273438 88.027344 C 72.910156 88.027344 72.542969 88.023438 72.167969 88.023438 C 71 88.015625 69.832031 87.996094 68.664062 87.976562 C 67.875 87.972656 67.082031 87.964844 66.289062 87.960938 C 64.351562 87.945312 62.410156 87.917969 60.46875 87.890625 C 60.46875 83.945312 60.46875 80 60.46875 75.9375 Z M 60.46875 75.9375 "/>
<path style=" stroke:none;fill-rule:nonzero;fill:rgb(95.294118%,86.274511%,27.058825%);fill-opacity:1;" d="M 88.59375 5.273438 C 92.074219 5.273438 95.554688 5.273438 99.140625 5.273438 C 98.605469 6.761719 98.066406 8.253906 97.527344 9.742188 C 97.34375 10.246094 97.160156 10.753906 96.980469 11.261719 C 96.71875 11.988281 96.453125 12.71875 96.1875 13.445312 C 96.105469 13.671875 96.027344 13.898438 95.941406 14.132812 C 95.582031 15.117188 95.320312 15.773438 94.570312 16.523438 C 94.429688 16.347656 94.289062 16.175781 94.144531 15.996094 C 92.78125 14.367188 91.363281 13.050781 89.652344 11.792969 C 87.941406 10.480469 87.941406 10.480469 87.761719 9.460938 C 87.769531 9.195312 87.773438 8.929688 87.78125 8.65625 C 87.78125 8.394531 87.785156 8.128906 87.785156 7.859375 C 87.890625 7.03125 87.890625 7.03125 88.59375 5.273438 Z M 88.59375 5.273438 "/>
<path style=" stroke:none;fill-rule:nonzero;fill:rgb(46.666667%,43.921569%,67.843139%);fill-opacity:1;" d="M 96.328125 51.679688 C 96.597656 51.828125 96.863281 51.976562 97.140625 52.128906 C 99.394531 53.324219 101.15625 54.054688 103.710938 54.140625 C 103.523438 55.96875 103.253906 57.269531 102.65625 59.0625 C 94.304688 59.0625 85.949219 59.0625 77.34375 59.0625 C 77.34375 58.945312 77.34375 58.832031 77.34375 58.710938 C 85.175781 58.535156 85.175781 58.535156 93.164062 58.359375 C 93.511719 56.617188 93.859375 54.878906 94.21875 53.085938 C 94.914062 52.621094 95.609375 52.15625 96.328125 51.679688 Z M 96.328125 51.679688 "/>
<path style=" stroke:none;fill-rule:nonzero;fill:rgb(90.196079%,84.705883%,47.058824%);fill-opacity:1;" d="M 83.320312 109.6875 C 87.730469 109.6875 92.136719 109.6875 96.679688 109.6875 C 96.679688 110.964844 96.679688 112.238281 96.679688 113.554688 C 92.269531 113.554688 87.863281 113.554688 83.320312 113.554688 C 83.320312 112.277344 83.320312 111.003906 83.320312 109.6875 Z M 83.320312 109.6875 "/>
<path style=" stroke:none;fill-rule:nonzero;fill:rgb(94.117647%,88.627452%,49.411765%);fill-opacity:1;" d="M 91.757812 41.484375 C 92.75 42.253906 93.308594 42.832031 93.867188 43.945312 C 93.945312 45.691406 93.753906 46.816406 92.636719 48.1875 C 91.472656 48.988281 90.382812 49.125 88.988281 49.035156 C 87.683594 48.742188 87.203125 48.210938 86.484375 47.109375 C 86.042969 45.578125 85.941406 44.390625 86.570312 42.914062 C 88.03125 41.195312 89.640625 41.144531 91.757812 41.484375 Z M 91.757812 41.484375 "/>
<path style=" stroke:none;fill-rule:nonzero;fill:rgb(94.901961%,89.019608%,49.803922%);fill-opacity:1;" d="M 155.390625 110.039062 C 159.683594 110.039062 163.976562 110.039062 168.398438 110.039062 C 168.398438 111.199219 168.398438 112.359375 168.398438 113.554688 C 164.105469 113.554688 159.8125 113.554688 155.390625 113.554688 C 155.390625 112.394531 155.390625 111.234375 155.390625 110.039062 Z M 155.390625 110.039062 "/>
<path style=" stroke:none;fill-rule:nonzero;fill:rgb(94.901961%,89.019608%,49.803922%);fill-opacity:1;" d="M 11.601562 110.039062 C 15.894531 110.039062 20.1875 110.039062 24.609375 110.039062 C 24.609375 111.199219 24.609375 112.359375 24.609375 113.554688 C 20.316406 113.554688 16.023438 113.554688 11.601562 113.554688 C 11.601562 112.394531 11.601562 111.234375 11.601562 110.039062 Z M 11.601562 110.039062 "/>
<path style=" stroke:none;fill-rule:nonzero;fill:rgb(48.627451%,45.882353%,70.588237%);fill-opacity:1;" d="M 88.945312 31.289062 C 94.746094 31.289062 100.546875 31.289062 106.523438 31.289062 C 107.148438 32.851562 107.308594 33.496094 107.269531 35.089844 C 107.265625 35.433594 107.257812 35.777344 107.25 36.128906 C 107.242188 36.390625 107.234375 36.648438 107.226562 36.914062 C 106.992188 36.855469 106.753906 36.800781 106.511719 36.742188 C 105.269531 36.527344 104.089844 36.515625 102.832031 36.519531 C 102.378906 36.519531 101.925781 36.515625 101.457031 36.515625 C 100.398438 36.554688 99.464844 36.664062 98.4375 36.914062 C 98.546875 36.167969 98.65625 35.417969 98.765625 34.671875 C 98.859375 34.046875 98.859375 34.046875 98.953125 33.414062 C 99.140625 32.34375 99.140625 32.34375 99.492188 31.640625 C 96.011719 31.640625 92.53125 31.640625 88.945312 31.640625 C 88.945312 31.523438 88.945312 31.410156 88.945312 31.289062 Z M 88.945312 31.289062 "/>
<path style=" stroke:none;fill-rule:nonzero;fill:rgb(93.333334%,84.705883%,26.274511%);fill-opacity:1;" d="M 102.964844 41.332031 C 103.261719 41.316406 103.554688 41.300781 103.863281 41.289062 C 105.210938 41.582031 105.722656 42.136719 106.523438 43.242188 C 106.5 44.464844 106.5 44.464844 106.171875 45.769531 C 106.019531 46.417969 106.019531 46.417969 105.863281 47.082031 C 105.46875 48.164062 105.46875 48.164062 104.414062 48.867188 C 102.78125 49.15625 101.597656 49.089844 100.195312 48.1875 C 99.277344 46.78125 99.03125 45.613281 99.140625 43.945312 C 99.929688 42.089844 100.960938 41.382812 102.964844 41.332031 Z M 102.964844 41.332031 "/>
<path style=" stroke:none;fill-rule:nonzero;fill:rgb(94.509804%,88.627452%,49.411765%);fill-opacity:1;" d="M 77.914062 41.308594 C 79.183594 41.574219 79.753906 42.222656 80.507812 43.242188 C 81.128906 44.488281 80.871094 45.796875 80.507812 47.109375 C 79.640625 48.148438 79.03125 48.753906 77.671875 48.996094 C 76.335938 49.039062 75.652344 48.910156 74.53125 48.164062 C 74.136719 47.082031 74.136719 47.082031 73.828125 45.769531 C 73.71875 45.339844 73.609375 44.910156 73.5 44.464844 C 73.476562 43.242188 73.476562 43.242188 74.222656 42.21875 C 75.558594 41.25 76.316406 41.230469 77.914062 41.308594 Z M 77.914062 41.308594 "/>
<path style=" stroke:none;fill-rule:nonzero;fill:rgb(60.000002%,42.352942%,42.352942%);fill-opacity:1;" d="M 65.742188 139.21875 C 65.859375 139.21875 65.972656 139.21875 66.09375 139.21875 C 66.09375 149.542969 66.09375 159.871094 66.09375 170.507812 C 68.414062 170.507812 70.734375 170.507812 73.125 170.507812 C 72.777344 171.898438 72.429688 173.292969 72.070312 174.726562 C 69.980469 174.726562 67.894531 174.726562 65.742188 174.726562 C 65.742188 163.007812 65.742188 151.292969 65.742188 139.21875 Z M 65.742188 139.21875 "/>
<path style=" stroke:none;fill-rule:nonzero;fill:rgb(88.627452%,87.843138%,88.627452%);fill-opacity:1;" d="M 87.1875 159.257812 C 89.042969 159.257812 90.898438 159.257812 92.8125 159.257812 C 92.8125 161 92.8125 162.738281 92.8125 164.53125 C 90.957031 164.53125 89.101562 164.53125 87.1875 164.53125 C 87.1875 162.789062 87.1875 161.050781 87.1875 159.257812 Z M 87.1875 159.257812 "/>
<path style=" stroke:none;fill-rule:nonzero;fill:rgb(92.54902%,91.37255%,92.54902%);fill-opacity:1;" d="M 159.257812 159.257812 C 161 159.257812 162.738281 159.257812 164.53125 159.257812 C 164.53125 161 164.53125 162.738281 164.53125 164.53125 C 162.789062 164.53125 161.050781 164.53125 159.257812 164.53125 C 159.257812 162.789062 159.257812 161.050781 159.257812 159.257812 Z M 159.257812 159.257812 "/>
<path style=" stroke:none;fill-rule:nonzero;fill:rgb(92.54902%,91.37255%,92.54902%);fill-opacity:1;" d="M 15.46875 159.257812 C 17.210938 159.257812 18.949219 159.257812 20.742188 159.257812 C 20.742188 161 20.742188 162.738281 20.742188 164.53125 C 19 164.53125 17.261719 164.53125 15.46875 164.53125 C 15.46875 162.789062 15.46875 161.050781 15.46875 159.257812 Z M 15.46875 159.257812 "/>
<path style=" stroke:none;fill-rule:nonzero;fill:rgb(96.078432%,90.196079%,49.411765%);fill-opacity:1;" d="M 78.75 64.335938 C 83.042969 64.335938 87.335938 64.335938 91.757812 64.335938 C 90.351562 66.09375 90.351562 66.09375 89.648438 66.445312 C 88.855469 66.476562 88.066406 66.484375 87.273438 66.480469 C 86.921875 66.480469 86.921875 66.480469 86.566406 66.476562 C 85.820312 66.476562 85.074219 66.472656 84.332031 66.46875 C 83.824219 66.464844 83.320312 66.464844 82.816406 66.460938 C 81.578125 66.457031 80.339844 66.453125 79.101562 66.445312 C 78.984375 65.75 78.871094 65.054688 78.75 64.335938 Z M 78.75 64.335938 "/>
<path style=" stroke:none;fill-rule:nonzero;fill:rgb(93.333334%,84.705883%,26.666668%);fill-opacity:1;" d="M 97.382812 20.039062 C 102.828125 23.367188 102.828125 23.367188 103.710938 26.015625 C 102.203125 26.015625 100.695312 26.015625 99.140625 26.015625 C 98.84375 25.21875 98.554688 24.417969 98.261719 23.621094 C 98.179688 23.394531 98.09375 23.167969 98.007812 22.9375 C 97.640625 21.921875 97.382812 21.128906 97.382812 20.039062 Z M 97.382812 20.039062 "/>
<path style=" stroke:none;fill-rule:nonzero;fill:rgb(70.19608%,54.509807%,54.509807%);fill-opacity:1;" d="M 102.65625 103.710938 C 102.65625 108.582031 102.65625 113.457031 102.65625 118.476562 C 102.308594 118.359375 101.960938 118.246094 101.601562 118.125 C 101.605469 117.769531 101.609375 117.414062 101.613281 117.050781 C 101.625 115.730469 101.632812 114.414062 101.640625 113.09375 C 101.644531 112.523438 101.648438 111.953125 101.65625 111.386719 C 101.664062 110.566406 101.667969 109.746094 101.671875 108.925781 C 101.675781 108.667969 101.675781 108.414062 101.679688 108.152344 C 101.679688 106.847656 101.625 105.875 100.898438 104.765625 C 102.261719 103.710938 102.261719 103.710938 102.65625 103.710938 Z M 102.65625 103.710938 "/>
</g>
</svg>
