<svg xmlns="http://www.w3.org/2000/svg" xmlns:xlink="http://www.w3.org/1999/xlink" version="1.1" x="0px" y="0px" viewBox="0 0 100 110.17125" style="enable-background:new 0 0 100 88.137;" xml:space="preserve"><style type="text/css">
	.st0{fill:none;stroke:#FFFFFF;stroke-width:0.2;stroke-miterlimit:10;}
</style><g><path d="M29.64,61.462c-0.007-0.151-0.02-0.299-0.035-0.445c-0.004-0.034-0.008-0.068-0.012-0.101   c-0.016-0.134-0.034-0.267-0.056-0.397c-0.002-0.01-0.003-0.019-0.005-0.029c-0.053-0.309-0.125-0.607-0.213-0.894v0v0   c-0.146-0.479-0.337-0.929-0.568-1.346l0-0.001c-0.071-0.127-0.145-0.251-0.223-0.372c-0.004-0.005-0.007-0.011-0.01-0.016   c-0.156-0.241-0.326-0.47-0.509-0.687c-0.008-0.009-0.015-0.018-0.023-0.027c-0.181-0.212-0.375-0.412-0.58-0.6   c-0.012-0.011-0.025-0.023-0.037-0.034c-0.203-0.184-0.417-0.355-0.641-0.514c-0.017-0.012-0.034-0.023-0.05-0.035   c-0.104-0.072-0.21-0.142-0.317-0.209c-0.009-0.005-0.017-0.011-0.026-0.016c-0.115-0.071-0.233-0.139-0.353-0.203   c-0.02-0.011-0.04-0.021-0.061-0.032c-0.103-0.055-0.208-0.107-0.314-0.157c-0.021-0.01-0.042-0.02-0.063-0.03   c-0.121-0.056-0.244-0.108-0.369-0.158c-0.021-0.008-0.042-0.016-0.063-0.024c-0.106-0.041-0.214-0.08-0.322-0.116   c-0.03-0.01-0.06-0.02-0.09-0.03c-0.127-0.041-0.255-0.08-0.385-0.115c-0.016-0.004-0.032-0.008-0.048-0.012   c-0.115-0.03-0.232-0.058-0.349-0.083c-0.035-0.008-0.07-0.015-0.105-0.022c-0.133-0.027-0.267-0.052-0.402-0.072   c-0.2-0.03-0.548-1.644-0.548-1.644c3.94-1.461,6.862-5.272,6.585-9.78c-0.306-4.991-4.385-9.003-9.38-9.233   c-0.068-0.003-0.136-0.003-0.204-0.004v-0.003c-0.024,0-0.049,0.001-0.073,0.001c-0.024,0-0.049-0.001-0.073-0.001v0.003   c-0.068,0.001-0.136,0.001-0.204,0.004c-4.995,0.23-9.074,4.242-9.38,9.233c-0.277,4.508,2.645,8.319,6.585,9.78   c0,0-0.348,1.614-0.548,1.644c-3.347,0.506-6.043,2.986-6.231,6.779c-0.118,2.379-0.35,4.056,0.548,9.274   c0.909,5.279-0.118,12.994-0.118,12.994h9.347h0.146h9.347c0,0-1.026-7.716-0.118-12.994C29.99,65.518,29.757,63.841,29.64,61.462z   "/><path d="M12.535,30.998c-0.001,0.007-0.008,0.009-0.013,0.004c-0.176-0.171-2.592-2.451-3.204,0.396   c-0.452,2.104,4.508,3.291,4.683,3.332c0.003,0.001,0.006,0,0.008-0.003c0.105-0.146,3.087-4.327,1.457-5.894   C13.427,26.874,12.59,30.732,12.535,30.998z"/><path d="M16.205,27.356c0.078-0.045,2.296-1.329,1.861-2.342c-0.544-1.268-1.709,0.288-1.788,0.396   c-0.002,0.003-0.006,0.002-0.007-0.001c-0.047-0.11-0.7-1.594-1.557-0.445c-0.633,0.849,1.414,2.339,1.486,2.391   C16.202,27.357,16.203,27.357,16.205,27.356z"/><polygon points="52.594,41.995 52.605,41.992 52.604,41.992  "/><path d="M62.093,26.818c4.104,0,7.442-3.339,7.442-7.442c0-4.104-3.339-7.442-7.442-7.442c-4.104,0-7.442,3.339-7.442,7.442   C54.651,23.479,57.989,26.818,62.093,26.818z M62.093,12.626c3.722,0,6.75,3.028,6.75,6.75c0,3.722-3.028,6.75-6.75,6.75   s-6.75-3.028-6.75-6.75C55.343,15.654,58.371,12.626,62.093,12.626z"/><path d="M5,4.407v55.038h4.221c0.246-0.868,0.627-1.674,1.136-2.397h-3.4V20.419c0.127-0.192,0.255-0.383,0.389-0.57   c0.149-0.205,0.303-0.407,0.475-0.587c0.168-0.174,0.371-0.355,0.577-0.38c0.099-0.008,0.185,0.034,0.256,0.113   c0.066,0.076,0.134,0.196,0.202,0.301c0.14,0.217,0.289,0.43,0.458,0.633c0.167,0.203,0.367,0.391,0.602,0.538   c0.234,0.145,0.516,0.251,0.806,0.251c0.072,0.009,0.143-0.007,0.214-0.01l0.107-0.01c0.035-0.006,0.069-0.016,0.103-0.024   l0.206-0.052l0.193-0.077c0.256-0.106,0.486-0.251,0.703-0.408c0.42-0.307,0.814-0.621,1.223-0.911   c0.202-0.142,0.41-0.285,0.606-0.38c0.096-0.047,0.192-0.077,0.243-0.077c0.045,0.008,0.038,0.004,0.087,0.054   c0.043,0.048,0.097,0.141,0.142,0.241c0.047,0.102,0.091,0.212,0.133,0.327l0.124,0.352l0.03,0.09l0.008,0.022l0.004,0.011   l0.002,0.006l0.016,0.038l0.019,0.044c0.016,0.033,0.019,0.05,0.045,0.096c0.035,0.057,0.077,0.113,0.121,0.165   c0.046,0.047,0.1,0.085,0.154,0.122c0.055,0.034,0.116,0.054,0.177,0.076c0.058,0.016,0.111,0.022,0.168,0.03   c0.052,0.004,0.096,0.002,0.144,0.002c0.174-0.01,0.301-0.038,0.396-0.044c0.098-0.008,0.13,0.01,0.122,0.013   c-0.001,0.005-0.001-0.002,0.002,0.004c0.002,0.007,0.005,0.012,0.01,0.016c0.005,0.007,0.01,0.026,0.016,0.037l0.041,0.082   c0.03,0.083,0.18,0.317,0.291,0.419c0.122,0.121,0.258,0.226,0.392,0.301c0.132,0.078,0.266,0.142,0.38,0.195   c0.071,0.032,0.138,0.067,0.184,0.093l0.007,0.034c0.012,0.05,0.032,0.101,0.056,0.148l0.019,0.034l0.015,0.021l0.03,0.039   c0.02,0.025,0.046,0.053,0.066,0.07c0.174,0.144,0.29,0.16,0.385,0.189c0.094,0.022,0.177,0.034,0.252,0.042   c0.301,0.03,0.554,0.027,0.798,0.039c0.121,0.005,0.237,0.013,0.339,0.026c0.054,0.006,0.106,0.017,0.145,0.027l0.002,0.004   l0.034,0.069c0.052,0.106,0.111,0.232,0.187,0.365c0.149,0.268,0.374,0.543,0.624,0.741c0.124,0.103,0.254,0.188,0.384,0.268   l0.098,0.055l0.049,0.028l0.012,0.007l0.006,0.003c0.009,0.005-0.06-0.032-0.028-0.015l0.02,0.013   c0.023,0.015,0.069,0.042,0.048,0.035c-0.005,0.001-0.013-0.009,0,0.007c0.07,0.069,0.182,0.263,0.285,0.476   c0.106,0.216,0.221,0.46,0.358,0.707c0.138,0.247,0.302,0.499,0.501,0.736c0.2,0.236,0.439,0.454,0.704,0.633   c0.533,0.363,1.148,0.548,1.732,0.629l0.075,0.01l0.105-0.013l0.27-0.033l0.263-0.036c0.175-0.025,0.35-0.052,0.524-0.081   c0.175-0.03,0.35-0.061,0.525-0.096c0.175-0.034,0.351-0.072,0.528-0.113c0.176-0.041,0.354-0.087,0.534-0.138   c0.089-0.023,0.181-0.055,0.271-0.083c0.09-0.027,0.182-0.059,0.276-0.096c0.094-0.036,0.184-0.067,0.284-0.116l0.146-0.068   l0.073-0.035l0.078-0.046l0.156-0.094c0.049-0.027,0.108-0.073,0.167-0.121c0.015-0.013,0.03-0.026,0.045-0.039   c0.023-0.012,0.055-0.031,0.105-0.063c0.059-0.041,0.108-0.089,0.153-0.14c0.031,0.038,0.065,0.08,0.103,0.127   c0.097,0.117,0.217,0.261,0.364,0.431c0.152,0.172,0.31,0.358,0.567,0.601c0.034,0.031,0.071,0.064,0.116,0.102   c0.047,0.038,0.095,0.079,0.198,0.14c0.023,0.014,0.061,0.034,0.1,0.052c0.025,0.011,0.049,0.021,0.076,0.031   c0.038,0.013,0.073,0.024,0.115,0.033c0.029,0.006,0.058,0.011,0.088,0.015c0.03,0.003,0.054,0.006,0.104,0.006   c0.045,0,0.09-0.004,0.133-0.01c0.023-0.003,0.051-0.009,0.08-0.017c0.04,0.044,0.081,0.088,0.122,0.131   c0.134,0.139,0.273,0.279,0.432,0.425c0.08,0.073,0.163,0.147,0.263,0.227c0.051,0.041,0.104,0.082,0.177,0.13   c0.036,0.024,0.077,0.05,0.136,0.081c0.03,0.015,0.063,0.032,0.111,0.051c0.023,0.009,0.05,0.019,0.084,0.029   c0.104,0.092,0.229,0.174,0.365,0.225c0.26,0.101,0.51,0.101,0.701,0.073c0.01-0.001,0.018-0.004,0.028-0.005   c0.028,0.031,0.06,0.071,0.092,0.117c0.102,0.145,0.209,0.335,0.317,0.541c0.109,0.207,0.219,0.432,0.356,0.679   c0.07,0.125,0.145,0.254,0.256,0.405c0.032,0.041,0.058,0.077,0.099,0.122l0.079,0.085c0.051,0.052,0.077,0.084,0.108,0.118   c0.145,0.169,0.311,0.387,0.483,0.601c0.347,0.434,0.743,0.889,1.219,1.294c0.12,0.1,0.243,0.199,0.373,0.292l0.169,0.124   c0.043,0.034,0.085,0.065,0.131,0.107c0.183,0.155,0.342,0.329,0.474,0.525c0.066,0.098,0.126,0.203,0.183,0.317   c0.059,0.117,0.108,0.237,0.188,0.405c0.045,0.085,0.088,0.189,0.222,0.337c0.072,0.075,0.182,0.159,0.318,0.206   c0.117,0.04,0.227,0.045,0.32,0.038c0.017,0.008,0.038,0.02,0.063,0.037c0.164,0.114,0.361,0.325,0.539,0.54   c0.092,0.112,0.174,0.219,0.277,0.352c0.094,0.12,0.149,0.161,0.207,0.22l0.174,0.165c0.232,0.216,0.467,0.427,0.718,0.635   c0.126,0.104,0.253,0.207,0.4,0.31c0.077,0.052,0.148,0.103,0.269,0.164c0.032,0.015,0.066,0.031,0.122,0.049   c0.026,0.008,0.06,0.018,0.11,0.024c0.026,0.003,0.048,0.006,0.09,0.005c0.032,0,0.078-0.005,0.134-0.021   c0.045-0.011,0.123-0.047,0.174-0.089c0.004-0.003,0.006-0.005,0.009-0.008c0.046,0.058,0.1,0.126,0.142,0.174   c0.218,0.252,0.438,0.492,0.715,0.723c0.071,0.058,0.145,0.115,0.235,0.172c0.046,0.029,0.094,0.057,0.156,0.084   c0.059,0.026,0.133,0.056,0.243,0.069c0.052,0.007,0.124,0.005,0.198-0.01c0.014-0.003,0.027-0.01,0.041-0.015   c0.086,0.063,0.188,0.159,0.285,0.258c0.103,0.104,0.204,0.216,0.311,0.333c0.055,0.06,0.105,0.116,0.182,0.19   c0.024,0.021,0.037,0.037,0.098,0.081c0.016,0.01,0.038,0.026,0.087,0.046c0.091,0.029,0.052,0.017,0.039,0.013   c0.003,0.001,0.007,0.002,0.01,0.003l0.104,0.037l0.434,0.162c0.29,0.109,0.58,0.219,0.868,0.327   c1.156,0.434,2.293,0.86,3.393,1.273c0.552,0.204,1.095,0.403,1.63,0.592c0.269,0.094,0.53,0.187,0.809,0.269   c0.036,0.01,0.071,0.02,0.117,0.03l0.043,0.007c0.008,0.001,0.023,0.003,0.038,0.003c0.013-0.013,0.019,0.003,0.044,0.001   c-0.002,0-0.001-0.004-0.001-0.006c0.004,0.001,0.007,0.002,0.012,0.003c0.001,0,0.002,0,0.003-0.001   c-0.001,0-0.003,0.001-0.003,0.001c0.041,0.011,0.091,0.027,0.137,0.041c0.127,0.044,0.254,0.087,0.379,0.131   c1.011,0.363,1.971,0.716,2.875,0.992c0.453,0.137,0.89,0.26,1.321,0.335c0.218,0.031,0.428,0.07,0.665,0.014   c0.058-0.017,0.128-0.048,0.175-0.119c0.023-0.035,0.034-0.076,0.036-0.112l0.004-0.03c0.003-0.004,0.003-0.008,0.005-0.012   c0.011-0.041,0.085-0.066,0.172-0.064c0.172,0.003,0.352,0.056,0.517,0.108c0.167,0.054,0.326,0.116,0.478,0.178   c0.304,0.125,0.579,0.253,0.826,0.37c0.495,0.235,0.88,0.429,1.148,0.55c0.134,0.061,0.238,0.104,0.311,0.126   c0.036,0.011,0.065,0.017,0.085,0.015c0.021-0.001,0.023-0.016,0.023-0.015c0-0.001-0.002,0.013-0.023,0.013   c-0.019,0.001-0.047-0.006-0.083-0.019c-0.071-0.025-0.173-0.073-0.304-0.139c-0.262-0.132-0.638-0.342-1.123-0.599   c-0.243-0.128-0.513-0.268-0.814-0.408c-0.151-0.07-0.31-0.139-0.479-0.203c-0.171-0.06-0.348-0.125-0.558-0.139   c-0.053-0.002-0.109,0-0.17,0.018c-0.06,0.017-0.129,0.064-0.161,0.134c-0.008,0.017-0.014,0.038-0.02,0.057l-0.007,0.043   c-0.002,0.013-0.005,0.021-0.01,0.028c-0.009,0.013-0.036,0.03-0.075,0.039c-0.162,0.034-0.375-0.003-0.576-0.044   c-0.41-0.089-0.836-0.229-1.276-0.383c-0.882-0.312-1.818-0.702-2.817-1.111c-0.127-0.05-0.255-0.1-0.383-0.151   c-0.069-0.025-0.128-0.049-0.218-0.072c-0.013-0.003-0.025-0.006-0.048-0.009c-0.01-0.001-0.026-0.003-0.052-0.002   c0.004-0.016-0.01-0.014-0.031-0.003c-0.016-0.005-0.033-0.01-0.05-0.016c-0.248-0.085-0.51-0.191-0.77-0.294   c-0.194-0.078-0.391-0.159-0.589-0.241c0.862,0.118,2.067,0.288,3.573,0.519c1.621,0.251,3.589,0.567,5.833,0.998   c1.121,0.217,2.312,0.462,3.556,0.768c0.622,0.154,1.256,0.322,1.897,0.523c0.25,0.079,0.501,0.166,0.751,0.259   c0.009,0.018,0.016,0.036,0.018,0.049c0.005,0.031,0.002,0.051-0.024,0.092c-0.05,0.082-0.184,0.177-0.325,0.25   c-0.143,0.075-0.303,0.139-0.467,0.196c-0.167,0.058-0.33,0.106-0.509,0.153c-0.167,0.043-0.345,0.082-0.521,0.117   c-0.355,0.068-0.719,0.121-1.088,0.163c-1.479,0.162-3.034,0.183-4.628,0.164c-3.193-0.046-6.563-0.273-10.051-0.51   c-1.744-0.119-3.519-0.245-5.319-0.353c-1.801-0.106-3.626-0.202-5.484-0.211c-0.93,0-1.866,0.015-2.828,0.119   c-0.484,0.059-0.968,0.124-1.495,0.307c-0.132,0.047-0.268,0.103-0.411,0.183c-0.142,0.081-0.294,0.181-0.44,0.348   c-0.145,0.162-0.274,0.421-0.287,0.683c-0.015,0.261,0.055,0.477,0.131,0.645c0.079,0.171,0.17,0.301,0.262,0.42   c0.095,0.122,0.182,0.217,0.29,0.324c0.209,0.202,0.427,0.364,0.648,0.508c0.443,0.286,0.897,0.5,1.352,0.688   c0.501,0.204,1.005,0.376,1.511,0.528c0.108,0.043,0.216,0.085,0.325,0.125c0.894,0.327,1.813,0.556,2.736,0.751   c1.848,0.382,3.717,0.617,5.578,0.812c0.261,0.027,0.522,0.051,0.783,0.076c0.971,0.126,1.94,0.244,2.904,0.357   c1.825,0.207,3.636,0.412,5.425,0.614c1.781,0.208,3.546,0.412,5.224,0.704c0.323,0.058,0.639,0.122,0.947,0.191l-0.136,0.047   c-1.538,0.522-3.119,0.94-4.656,1.315c-3.083,0.744-6.044,1.314-8.783,1.785c-3.711,0.632-7.022,1.074-9.765,1.343H29.23   c0.072,0.103,0.141,0.207,0.208,0.313l-0.002,0.005c0.402,0.637,0.711,1.332,0.921,2.073l-0.002,0.005h0.004h0.007h0.043h6.639   h5.849c0.014-0.002,0.028-0.003,0.042-0.005H95V4.407H5z M52.753,41.881c0.035-0.022-0.007,0.015-0.057,0.053   C52.713,41.92,52.732,41.902,52.753,41.881z M52.568,41.984L52.568,41.984c0,0-0.003,0-0.003,0   C52.56,41.982,52.564,41.983,52.568,41.984z M17.516,21.477c-0.001-0.007-0.001-0.015,0-0.022l0.003,0.031   C17.518,21.483,17.516,21.48,17.516,21.477z M18.451,21.375c-0.001-0.004-0.002-0.009-0.003-0.013   c0.002,0.007,0.004,0.014,0.005,0.021c0.001,0.017,0.004,0.051,0.004,0.06C18.456,21.42,18.454,21.398,18.451,21.375z    M18.459,21.419l-0.002-0.012l-0.002-0.012l-0.001-0.006c0-0.003,0-0.003,0-0.005c0.001,0.004,0.002,0.008,0.003,0.012l0.003,0.027   C18.46,21.425,18.46,21.42,18.459,21.419z M29.096,25.697L29.096,25.697l0.003-0.003C29.099,25.694,29.096,25.696,29.096,25.697z    M29.094,25.698c-0.008,0.008-0.027,0.026-0.04,0.037l-0.03,0.025c-0.009,0.007-0.015,0.011-0.023,0.016   c0.034-0.029,0.068-0.057,0.1-0.086l0.01-0.009C29.104,25.688,29.13,25.662,29.094,25.698z M30.742,25.559l-0.004,0.002   c0.003-0.001,0.008-0.004,0.023-0.01L30.742,25.559z M30.875,26.529c-0.016-0.054-0.005-0.018,0.005,0.014   C30.878,26.538,30.876,26.533,30.875,26.529z M32.287,27.767c-0.008-0.014-0.005-0.009-0.005-0.009l0.009,0.016L32.287,27.767z    M32.331,25.86c-0.004-0.005-0.013-0.02,0.009,0.012L32.331,25.86z M32.393,25.976c0.006,0.014,0.012,0.028,0.016,0.04   c-0.01-0.032-0.003-0.011,0.004,0.013C32.408,26.012,32.4,25.994,32.393,25.976z M33.841,28.446c-0.003,0-0.006,0-0.008,0.001   l0.016-0.003l0.01-0.002L33.841,28.446z M39.069,34.779c-0.006-0.002-0.011-0.004-0.011-0.004c-0.002-0.002-0.001-0.002,0.003,0   C39.063,34.776,39.067,34.778,39.069,34.779C39.07,34.779,39.069,34.779,39.069,34.779z M39.113,34.784   c0.007-0.001,0.014-0.001,0.02-0.002c-0.007,0.001-0.011,0.001-0.016,0.001C39.116,34.784,39.114,34.784,39.113,34.784z    M39.134,34.783c-0.003,0-0.007,0-0.01,0l0.001,0l0.014-0.001C39.148,34.782,39.144,34.783,39.134,34.783z M44.277,38.278   c-0.005,0.004-0.026,0.018-0.043,0.026c0.018-0.011,0.037-0.021,0.053-0.034C44.281,38.274,44.28,38.276,44.277,38.278z    M66.013,43.703c-0.645-0.198-1.283-0.362-1.907-0.512c-1.248-0.298-2.442-0.535-3.565-0.745c-2.248-0.416-4.218-0.72-5.841-0.96   c-1.531-0.225-2.75-0.388-3.615-0.501c-0.32-0.132-0.643-0.266-0.97-0.404c-0.569-0.242-1.148-0.488-1.734-0.737   c0.205,0.029,0.596,0.084,1.159,0.163c0.865,0.125,2.134,0.313,3.745,0.575c1.61,0.263,3.564,0.593,5.791,1.039   c1.113,0.225,2.294,0.478,3.526,0.789c0.616,0.157,1.244,0.328,1.876,0.529c0.316,0.101,0.633,0.21,0.945,0.333   c0.311,0.124,0.624,0.26,0.902,0.43c0.094,0.057,0.183,0.121,0.258,0.187C66.394,43.825,66.203,43.762,66.013,43.703z    M34.784,46.542c-0.125-0.084-0.241-0.173-0.338-0.264c-0.125-0.117-0.254-0.272-0.293-0.355c-0.002-0.003-0.002-0.005-0.003-0.007   c0.055-0.042,0.164-0.106,0.288-0.149c0.346-0.132,0.783-0.212,1.215-0.272c0.874-0.116,1.785-0.155,2.69-0.175   c1.815-0.034,3.632,0.019,5.426,0.082c1.795,0.065,3.57,0.149,5.318,0.227c3.495,0.155,6.88,0.304,10.1,0.275   c1.61-0.019,3.18-0.076,4.696-0.278c0.379-0.052,0.755-0.115,1.125-0.196c0.186-0.041,0.368-0.086,0.555-0.139   c0.175-0.051,0.362-0.111,0.537-0.176c0.178-0.067,0.354-0.141,0.528-0.237c0.171-0.1,0.352-0.205,0.495-0.429   c0.035-0.054,0.062-0.123,0.076-0.195c0.23,0.099,0.456,0.209,0.666,0.344c0.142,0.094,0.283,0.201,0.369,0.336   c0.094,0.135,0.07,0.293-0.045,0.412c-0.111,0.12-0.266,0.211-0.424,0.287c-0.159,0.077-0.328,0.141-0.499,0.199   c-0.687,0.231-1.422,0.351-2.172,0.439c-1.502,0.169-3.07,0.198-4.679,0.19c-3.22-0.025-6.613-0.228-10.122-0.437   c-1.755-0.105-3.539-0.216-5.347-0.307c-1.808-0.089-3.64-0.167-5.493-0.151c-0.926,0.013-1.858,0.042-2.794,0.173   c-0.234,0.034-0.468,0.076-0.701,0.133c-0.233,0.058-0.467,0.129-0.696,0.244c-0.114,0.059-0.227,0.13-0.329,0.229   C34.878,46.4,34.826,46.467,34.784,46.542z M92.728,57.049H56.417c-0.006,0.002-0.012,0.003-0.018,0.005H53.96h-2.318   c1.628-0.349,3.312-0.739,5.043-1.187c1.57-0.412,3.17-0.861,4.811-1.448l0.308-0.113l0.305-0.116   c0.217-0.085,0.438-0.178,0.673-0.3c0.118-0.062,0.24-0.13,0.374-0.221c0.134-0.096,0.282-0.196,0.461-0.425   c0.086-0.116,0.19-0.279,0.242-0.527c0.002-0.01,0.003-0.021,0.005-0.031c0.136,0.088,0.243,0.195,0.257,0.274   c0.011,0.044,0.008,0.089-0.017,0.152c-0.025,0.061-0.067,0.132-0.127,0.199c-0.114,0.137-0.27,0.264-0.431,0.382   c-0.324,0.236-0.695,0.44-1.063,0.63c-1.478,0.751-3.05,1.275-4.582,1.728c-1.336,0.39-2.657,0.712-3.95,0.995h2.465   c0.545-0.143,1.092-0.292,1.643-0.456c1.552-0.468,3.137-1,4.675-1.791c0.381-0.201,0.759-0.409,1.125-0.677   c0.182-0.136,0.362-0.28,0.523-0.474c0.081-0.095,0.157-0.209,0.211-0.347c0.055-0.136,0.079-0.315,0.032-0.481   c-0.045-0.166-0.142-0.295-0.241-0.39c-0.1-0.096-0.206-0.167-0.312-0.23c-0.09-0.051-0.18-0.095-0.27-0.135   c-0.013-0.035-0.027-0.068-0.042-0.098c-0.1-0.202-0.214-0.32-0.311-0.41c-0.098-0.089-0.185-0.148-0.265-0.198   c-0.316-0.188-0.559-0.266-0.802-0.346c-0.241-0.076-0.471-0.134-0.699-0.186c-0.455-0.103-0.899-0.181-1.344-0.251   c-1.774-0.272-3.548-0.44-5.345-0.614c-1.792-0.167-3.605-0.336-5.433-0.506c-1.823-0.177-3.657-0.369-5.486-0.606   c-1.828-0.24-3.659-0.517-5.44-0.923c-0.888-0.205-1.767-0.443-2.588-0.759c-0.338-0.131-0.664-0.278-0.962-0.445   c0.055-0.115,0.184-0.218,0.336-0.297c0.38-0.191,0.839-0.28,1.286-0.351c0.905-0.133,1.83-0.169,2.748-0.188   c1.839-0.029,3.669,0.038,5.475,0.114c1.806,0.079,3.591,0.178,5.346,0.272c3.511,0.186,6.908,0.366,10.136,0.37   c1.613-0.003,3.185-0.042,4.698-0.222c0.754-0.094,1.498-0.22,2.198-0.46c0.175-0.06,0.347-0.127,0.514-0.209   c0.165-0.083,0.33-0.176,0.462-0.321c0.065-0.072,0.12-0.166,0.132-0.273c0.014-0.108-0.024-0.213-0.077-0.294   c-0.108-0.165-0.26-0.274-0.409-0.372c-0.233-0.148-0.477-0.263-0.724-0.365c-0.001-0.033-0.004-0.067-0.011-0.099   c-0.031-0.144-0.104-0.25-0.176-0.334c-0.148-0.166-0.311-0.271-0.472-0.367c-0.324-0.187-0.653-0.319-0.98-0.441   c-0.328-0.12-0.654-0.224-0.978-0.319c-0.648-0.19-1.286-0.347-1.91-0.491c-1.248-0.284-2.438-0.51-3.559-0.709   c-2.242-0.395-4.204-0.68-5.821-0.904c-1.617-0.223-2.89-0.381-3.758-0.487c-0.577-0.068-0.975-0.114-1.177-0.138   c-0.127-0.054-0.255-0.108-0.383-0.163c0.496,0.092,0.997,0.155,1.503,0.179l0.241,0.008l0.242-0.003   c0.081,0.001,0.161-0.007,0.242-0.012c0.081-0.006,0.161-0.01,0.241-0.023c0.08-0.013,0.161-0.02,0.241-0.037l0.238-0.057   c0.078-0.025,0.155-0.056,0.233-0.084c0.077-0.029,0.147-0.078,0.221-0.117c0.067-0.037,0.136-0.082,0.204-0.123   c0.068-0.042,0.138-0.066,0.206-0.1c0.071-0.029,0.146-0.051,0.219-0.077c0.076-0.018,0.151-0.039,0.227-0.055   c0.307-0.062,0.626-0.086,0.948-0.139c0.321-0.052,0.647-0.141,0.943-0.298c0.077-0.035,0.146-0.082,0.216-0.127l0.105-0.069   l0.098-0.078c0.123-0.091,0.228-0.2,0.335-0.307c0.442-0.097,0.873-0.218,1.293-0.418c0.107-0.053,0.214-0.112,0.316-0.186   c0.102-0.075,0.204-0.166,0.279-0.301c0.017-0.035,0.035-0.071,0.044-0.112l0.021-0.09c0.013-0.066,0.027-0.087,0.041-0.12   c0.036-0.068,0.088-0.111,0.167-0.148c0.08-0.037,0.18-0.059,0.299-0.092c0.06-0.018,0.123-0.036,0.194-0.074   c0.068-0.036,0.146-0.093,0.195-0.177c0.008-0.014,0.014-0.019,0.024-0.041l0.028-0.065c0.02-0.049,0.022-0.071,0.033-0.108   c0.016-0.065,0.026-0.125,0.036-0.183c0.019-0.115,0.034-0.224,0.059-0.312c0.006-0.023,0.013-0.042,0.02-0.059   c0.006-0.02,0.015-0.03,0.021-0.041c0.006-0.016,0.013-0.009,0.014-0.018c0.005,0.002,0.001-0.001,0.006,0   c0.004,0,0.028-0.001,0.061,0.008l0.054,0.017c0.061,0.018,0.023,0.006,0.039,0.011l0.01,0.002l0.021,0.005   c0.014,0.003,0.024,0.007,0.053,0.008c0.046,0.003,0.105,0.005,0.141,0l0.101-0.013c0.063-0.012,0.125-0.024,0.184-0.039   c0.118-0.03,0.231-0.065,0.342-0.102c0.879-0.303,1.705-0.672,2.55-0.998c0.839-0.324,1.691-0.648,2.538-0.806   c0.209-0.036,0.42-0.062,0.611-0.055l0.137,0.012l0.17,0.022l0.339,0.044c0.454,0.058,0.906,0.112,1.36,0.162   c0.907,0.101,1.816,0.189,2.728,0.258c0.912,0.07,1.827,0.122,2.749,0.135c0.23,0.007,0.462,0.002,0.694,0.001   c0.231,0.002,0.465-0.01,0.699-0.021c0.467-0.019,0.941-0.067,1.429-0.159c0.121-0.021,0.252-0.067,0.377-0.1l0.186-0.055   l0.16-0.058l0.637-0.229l1.281-0.443c0.857-0.29,1.718-0.572,2.58-0.845c0.862-0.273,1.727-0.535,2.593-0.782   c0.865-0.245,1.736-0.482,2.592-0.656l0.316-0.057l0.158-0.029l0.15-0.018l0.336-0.041c0.059-0.008,0.106-0.012,0.176-0.024   l0.238-0.051c0.558-0.146,1.015-0.386,1.44-0.645c0.844-0.524,1.558-1.137,2.254-1.733c0.346-0.297,0.687-0.596,1.022-0.868   c0.167-0.136,0.334-0.266,0.494-0.375c0.154-0.108,0.322-0.201,0.394-0.223c0.004,0.001,0.007,0.001,0.01,0   c-0.001,0,0.008-0.004-0.001-0.001l0.042-0.008l0.168-0.031c0.048-0.006,0.092-0.013,0.138-0.02V57.049z M92.728,25.139   c-0.025,0.004-0.05,0.006-0.075,0.01c-0.119,0.016-0.259,0.043-0.387,0.067l-0.167,0.036l-0.042,0.009   c-0.038,0.007-0.055,0.014-0.084,0.021c-0.052,0.015-0.103,0.031-0.154,0.048c-0.354,0.14-0.57,0.299-0.785,0.453   c-0.21,0.155-0.396,0.312-0.576,0.469c-0.36,0.313-0.692,0.626-1.025,0.932c-0.662,0.608-1.318,1.202-2.005,1.66   c-0.34,0.227-0.696,0.415-1.017,0.51c-0.031,0.008-0.063,0.017-0.094,0.027c-0.041,0.01-0.108,0.018-0.161,0.027l-0.042,0.007   c-0.01,0.001,0.053-0.006,0.021-0.002l-0.012,0.002L86.1,29.418l-0.094,0.014l-0.188,0.029l-0.187,0.03l-0.176,0.038l-0.352,0.076   c-0.919,0.219-1.794,0.491-2.669,0.771c-0.873,0.282-1.738,0.576-2.599,0.881c-0.861,0.305-1.717,0.618-2.571,0.94l-1.28,0.491   l-0.638,0.254l-0.158,0.064l-0.14,0.045c-0.093,0.027-0.176,0.064-0.278,0.084c-0.403,0.089-0.833,0.151-1.273,0.182   c-0.22,0.018-0.439,0.036-0.663,0.042c-0.223,0.008-0.444,0.021-0.669,0.022c-0.895,0.018-1.797-0.002-2.699-0.041   c-0.902-0.039-1.805-0.095-2.708-0.165c-0.451-0.035-0.903-0.073-1.352-0.115l-0.338-0.032L64.9,33.011l-0.203-0.01   c-0.264,0-0.506,0.041-0.742,0.089c-0.936,0.209-1.78,0.57-2.622,0.926c-0.839,0.358-1.663,0.757-2.492,1.074   c-0.103,0.038-0.206,0.073-0.308,0.103c-0.05,0.015-0.1,0.026-0.148,0.037l-0.068,0.011c-0.021,0.003-0.018,0.001-0.029,0.006   c0,0.004-0.017,0-0.031-0.002l-0.021-0.004l-0.01-0.002c0.009,0.003-0.036-0.01,0.018,0.007l-0.11-0.031   c-0.077-0.016-0.169-0.026-0.275,0.005c-0.05,0.013-0.101,0.047-0.143,0.078c-0.034,0.035-0.077,0.076-0.094,0.112   c-0.023,0.038-0.044,0.077-0.054,0.111c-0.014,0.036-0.025,0.071-0.032,0.103c-0.032,0.132-0.043,0.25-0.057,0.359   c-0.007,0.054-0.014,0.106-0.024,0.152c-0.005,0.018-0.011,0.053-0.014,0.056c-0.001,0.005-0.002,0.01-0.002,0.015   c0,0.005-0.012,0.023-0.018,0.033c-0.008,0.03-0.076,0.068-0.176,0.1c-0.098,0.032-0.221,0.061-0.346,0.123   c-0.126,0.059-0.254,0.173-0.318,0.311c-0.033,0.07-0.059,0.157-0.064,0.203l-0.015,0.076c-0.002,0.015-0.01,0.03-0.016,0.047   c-0.068,0.137-0.257,0.267-0.442,0.365c-0.382,0.199-0.818,0.338-1.246,0.445l-0.04,0.01l-0.029,0.03   c-0.107,0.11-0.207,0.228-0.328,0.323l-0.087,0.075l-0.094,0.065c-0.063,0.043-0.124,0.089-0.193,0.123   c-0.265,0.152-0.562,0.245-0.87,0.306c-0.308,0.063-0.629,0.097-0.948,0.173c-0.08,0.019-0.158,0.044-0.237,0.066   c-0.077,0.03-0.155,0.056-0.231,0.09c-0.074,0.039-0.155,0.073-0.222,0.117c-0.068,0.044-0.131,0.089-0.203,0.132   c-0.067,0.037-0.127,0.085-0.199,0.114c-0.072,0.029-0.143,0.06-0.216,0.087l-0.227,0.062c-0.076,0.019-0.155,0.029-0.232,0.044   c-0.077,0.016-0.157,0.023-0.235,0.031c-0.079,0.008-0.158,0.018-0.237,0.02l-0.238,0.011l-0.239,0   c-0.521-0.007-1.042-0.056-1.558-0.137c-0.381-0.162-0.763-0.325-1.149-0.488c-0.284-0.121-0.569-0.243-0.854-0.365l-0.432-0.183   l-0.088-0.036c-0.033-0.036-0.079-0.09-0.122-0.141c-0.099-0.118-0.202-0.242-0.313-0.366c-0.113-0.124-0.227-0.248-0.388-0.375   c-0.041-0.032-0.086-0.064-0.143-0.097c-0.059-0.032-0.123-0.068-0.236-0.091c-0.056-0.011-0.127-0.017-0.212-0.002   c-0.021,0.004-0.041,0.009-0.062,0.015c-0.002-0.001-0.003-0.002-0.005-0.003c-0.041-0.028-0.09-0.068-0.138-0.112   c-0.197-0.179-0.395-0.409-0.576-0.638c-0.045-0.057-0.09-0.117-0.128-0.171c-0.015-0.021-0.039-0.058-0.085-0.115   c-0.043-0.052-0.094-0.106-0.159-0.156c-0.124-0.102-0.337-0.184-0.542-0.163c-0.109,0.011-0.204,0.043-0.288,0.085   c-0.098-0.077-0.202-0.167-0.304-0.259c-0.219-0.199-0.436-0.411-0.646-0.624l-0.155-0.16c-0.049-0.052-0.108-0.114-0.105-0.118   c-0.08-0.114-0.178-0.255-0.275-0.383c-0.202-0.262-0.402-0.519-0.721-0.772c-0.083-0.063-0.176-0.126-0.301-0.183   c-0.03-0.014-0.064-0.028-0.102-0.04c-0.034-0.013-0.076-0.023-0.12-0.032c-0.009-0.003-0.024-0.005-0.04-0.008   c-0.041-0.101-0.092-0.233-0.15-0.364c-0.068-0.154-0.148-0.31-0.239-0.459c-0.183-0.3-0.409-0.57-0.656-0.799   c-0.059-0.057-0.129-0.116-0.197-0.173l-0.172-0.138c-0.099-0.078-0.194-0.162-0.288-0.246c-0.371-0.346-0.691-0.741-0.997-1.161   c-0.157-0.212-0.302-0.425-0.488-0.661c-0.054-0.066-0.11-0.135-0.148-0.177l-0.032-0.037c-0.001-0.001-0.025-0.027-0.015-0.017   l-0.001-0.002l-0.003-0.004c-0.003-0.003-0.013-0.02-0.021-0.03c-0.039-0.059-0.09-0.152-0.139-0.25   c-0.1-0.2-0.2-0.428-0.308-0.658c-0.109-0.231-0.224-0.468-0.381-0.715c-0.08-0.124-0.17-0.252-0.297-0.386   c-0.128-0.13-0.298-0.284-0.579-0.381c-0.066-0.025-0.148-0.039-0.223-0.051c-0.04-0.006-0.102-0.008-0.152-0.007l-0.079,0.003   l-0.049,0.005L33.6,26.966l-0.008-0.013c-0.015-0.023-0.031-0.045-0.047-0.067c-0.043-0.052-0.082-0.099-0.174-0.164   c-0.111-0.07-0.236-0.127-0.39-0.136c-0.021-0.02-0.042-0.041-0.064-0.062c-0.118-0.118-0.234-0.245-0.342-0.368   c-0.052-0.061-0.104-0.122-0.154-0.181l-0.066-0.083l-0.004-0.005c-0.004-0.007-0.007-0.015-0.011-0.021   c-0.129-0.207-0.246-0.268-0.328-0.319c-0.162-0.085-0.239-0.093-0.307-0.109c-0.13-0.023-0.207-0.022-0.284-0.022   c-0.045,0.001-0.088,0.004-0.129,0.007c-0.102-0.116-0.207-0.244-0.294-0.354c-0.125-0.158-0.232-0.297-0.317-0.41   c-0.167-0.226-0.257-0.347-0.257-0.347l-0.014-0.019c-0.007-0.009-0.014-0.018-0.021-0.027c-0.301-0.372-0.846-0.429-1.218-0.129   c-0.053,0.043-0.098,0.092-0.138,0.144c-0.283-0.17-0.65-0.171-0.939,0.029c0.018-0.011,0.03-0.019,0.04-0.025   c-0.006,0.003-0.01,0.006-0.019,0.01c-0.03,0.017-0.075,0.043-0.129,0.084l-0.043,0.034c-0.019,0.016-0.048,0.043-0.057,0.052   l-0.024,0.024l-0.002,0.001c-0.009,0.006-0.017,0.013-0.024,0.021c0,0.015-0.064,0.048-0.097,0.075l-0.03,0.022l-0.042,0.022   l-0.083,0.045c-0.051,0.032-0.122,0.059-0.185,0.089c-0.063,0.03-0.13,0.058-0.202,0.085c-0.071,0.026-0.138,0.056-0.213,0.08   c-0.146,0.052-0.295,0.1-0.449,0.146c-0.153,0.046-0.308,0.089-0.465,0.13c-0.157,0.041-0.316,0.079-0.475,0.117l-0.481,0.105   l-0.241,0.048l-0.156,0.029c-0.385-0.041-0.742-0.135-1.041-0.312c-0.328-0.189-0.598-0.479-0.841-0.861   c-0.123-0.191-0.238-0.402-0.371-0.635c-0.139-0.231-0.272-0.496-0.577-0.776c-0.031-0.03-0.091-0.076-0.147-0.114   c-0.069-0.048-0.081-0.05-0.112-0.068l-0.073-0.039l-0.035-0.017l-0.071-0.034c-0.09-0.048-0.178-0.098-0.253-0.153   c-0.156-0.11-0.269-0.229-0.381-0.398c-0.056-0.085-0.112-0.187-0.179-0.305l-0.057-0.099L20.521,21.6   c-0.029-0.044-0.063-0.088-0.098-0.125c-0.033-0.032-0.068-0.063-0.104-0.091c-0.032-0.022-0.065-0.043-0.098-0.062   c-0.032-0.018-0.059-0.029-0.09-0.043c-0.228-0.091-0.386-0.098-0.54-0.113c-0.151-0.01-0.29-0.009-0.424-0.007   c-0.264,0.004-0.521,0.02-0.729,0.011c-0.017-0.001-0.032-0.002-0.047-0.003c-0.068-0.144-0.171-0.252-0.248-0.303   c-0.191-0.134-0.321-0.171-0.442-0.223c-0.12-0.047-0.219-0.088-0.309-0.134c-0.092-0.044-0.16-0.095-0.224-0.147   c-0.028-0.028-0.061-0.057-0.072-0.074l-0.014-0.014l-0.008-0.007l-0.012-0.02l-0.047-0.083l-0.012-0.021l-0.003-0.005   c0.005,0.01-0.015-0.03,0.01,0.021l-0.009-0.016l-0.036-0.064c-0.026-0.043-0.047-0.084-0.08-0.127   c-0.037-0.044-0.076-0.087-0.116-0.127c-0.041-0.04-0.099-0.075-0.151-0.109c-0.108-0.062-0.235-0.097-0.34-0.104   c-0.058-0.008-0.102-0.005-0.15-0.003c-0.05,0.001-0.09,0.006-0.129,0.012c-0.158,0.023-0.28,0.055-0.36,0.064l-0.047,0.004   c-0.006-0.002-0.017,0-0.02,0c0.002-0.003,0,0.003,0.001,0.003c0.004-0.002,0.002,0.003,0.003,0.006   c0.005,0.001,0.007,0.008,0.003,0.015c0,0.005-0.004-0.003-0.008-0.011l-0.011-0.021l-0.022-0.042l-0.02-0.039l-0.006-0.015   l-0.036-0.089c-0.049-0.119-0.099-0.239-0.152-0.361c-0.053-0.121-0.11-0.244-0.178-0.37c-0.069-0.125-0.144-0.258-0.279-0.392   c-0.064-0.066-0.158-0.132-0.263-0.176c-0.11-0.045-0.228-0.054-0.333-0.046c-0.204,0.024-0.347,0.098-0.476,0.167   c-0.254,0.145-0.456,0.308-0.661,0.47c-0.403,0.324-0.787,0.67-1.17,0.987c-0.37,0.306-0.796,0.556-1.241,0.576   c-0.447,0.022-0.869-0.249-1.203-0.605c-0.168-0.179-0.324-0.375-0.473-0.577c-0.078-0.103-0.138-0.205-0.245-0.317   c-0.101-0.107-0.272-0.179-0.429-0.152c-0.154,0.026-0.274,0.107-0.378,0.19c-0.105,0.085-0.194,0.182-0.278,0.281   c-0.168,0.199-0.311,0.412-0.449,0.628c-0.108,0.172-0.21,0.346-0.312,0.521V6.123h85.771V25.139z"/></g><text x="0" y="103.137" fill="#000000" font-size="5px" font-weight="bold" font-family="'Helvetica Neue', Helvetica, Arial-Unicode, Arial, Sans-serif">Created by Lindsey Grigg</text><text x="0" y="108.137" fill="#000000" font-size="5px" font-weight="bold" font-family="'Helvetica Neue', Helvetica, Arial-Unicode, Arial, Sans-serif">from the Noun Project</text></svg>